<?xml-stylesheet type="text/css" href="../style.css"?>
<svg version="1.2" baseProfile="tiny" id="info-star1" xmlns="http://www.w3.org/2000/svg" width="77" height="101" overflow="visible" xml:space="preserve"><g id="light-2"><path fill="#FFE08C" d="M36 25c-21 4-16 36 4 36 28 2 22-42-4-36zM36 27z"/><path fill="none" d="M23 34c0-1 0 0 0 0l1-2 1-1h-1 1v-1 1h0v-1h1v1 1h-1s1 0 0 0v1-1 1l-1 1v1h-1v-1c-1 0 0 0 0 0zm1-1h1-1zm0 1h-1v1l1-1zM27 27h-1a133 133 0 011 0zM25 29h0zM23 31h-1l1 1v-1zM26 30h1v-1 1l-1-1v1h1v-1h1l1-1v-1c-1 0 0 0 0 0v-1h-1v2l-1 1 1-1h-1v1s-1 0 0 0h-1v1zM24 31v-1-1 1l-1-1h0l1 1-1 1h1zM22 35v-1s0-1 0 0h-1v3l1-2zM21 43l1 1v1-1-1-1-1 1h1v-1l-2 1v1zM20 43h0l1-1h-1v1h-1l1 1v-1zM21 46v-1-1h-1v1c0 1 0 0 0 0l1 1zM26 27h-1v1l1-1zM22 39l1-1-1 1h-1v-1 2h-1 0l1-1 1 1s-1 0 0 0v-1zM23 37v1h-1 1v-1zM22 40v-1 1h0zM30 26h1l-1-1v1zM60 45v-1-1 0h-1v1l1 1zM29 26h-1v-1h2-2s0 1 0 0v1h1zM26 35v0c1 0 0 0 0 0zM36 27zM35 25h-1-1c0 1 0 0 0 0h1v1l1-1h1c-1 0 0 0 0 0h-1zM48 62v-1 1h-1v-1 1l-1-1v1h1-1 1v1-1h1zM32 25l-1 1 1-1zM31 24l-1 1 1-1zM28 30zM32 25h1l-1-1v1zM32 26h2-2zM27 30h0zM23 49v-1h1v0l-1-1h0v-1h-1v1l1 2s0-1 0 0zM21 37v-1 1h-1 1zM55 53zM52 54h1v-1l-1 1zM56 53v1l1-1h-1zM59 49h-1 1zM58 49zM49 57zM23 49h1-1zM48 60v1h1v-1h-1zM48 58h-1-1c0-1 0 0 0 0h2zM48 58v-1h-1l1 1zM50 61h-1 1zM57 38v0zM59 38v-1 1zM55 34l1-1h-1v1zM58 38h1-1zM55 31v0zM58 48v0zM42 23l-1-1v1h1zM56 48h1l-1-1v1zM46 61v0h1-1zM57 46h-1 1zM57 40v-1 1zM58 44v0zM50 61l1 1v-1h-1zM27 56v-1-1h-1c0 1 0 0 0 0v1l1 1v-1h-1c1 0 1 0 0 0h1v1zM31 59v1h1l-1-1zM31 56h-1 1zM28 56s-1 0 0 0h-1l1 1v-1zM29 58l1 1h1l-1-1h-1zM39 61v-1l-1 1v1l1-1h-1 1zM33 60h1-1zM39 59h0zM36 61h1v0h-1zM42 62zM40 61h-1l1-1v1zM41 63h1l-1-1v1zM24 51l1 1-1-1zM27 49h-1 1v-1h-1v1h1zM43 62h-1 1c0 1 0 0 0 0z"/><path fill="#FFE08C" d="M47 63zM36 24l-1-1h1v-1c1 1 0 0 0 0h2s0 1 0 0v1h1v-1h1v1l1-1 1 1v-1h3l1 1v1l1-1h1v1h1s0-1 0 0h1v2l1-1 1 1v1h1c1-1 0 0 1 1v1h1s0 1 0 0c0 0 0 1 0 0v1l1 1 1 1h-1 1v0l1 1v2l1-1v4l1 1v2l1 2h-1l1 2h-1v-1-1 0h-1v1l1 1v3s1 0 0 0v3l-1-1v1c0-1 0 0 0 0v3l-1 1c0-1 0 0 0 0l-1 1v1h-1s0 1 0 0v1h-1v1h-1 1v1l-1-1v0l-1 1-1 1s-1 0 0 0h-1c1 1-1 1-1 2v-1s-2 0-1 1h-1c1 0 1 0 0 0v-1a75 75 0 010 1s0-1 0 0h-1v-1h1v-1 0l-1 1v-1 0l-1 1h1v1h-1s0 1 0 0l-1 1-1-1c0 1 0 0 0 0v1h-1l-1-1v1h-1v-1l-1 1v-1h-1v1h-1l-1-1v1l-1-1h0v-1 1h-1l-1-1h-1l-2-1h-1l-1-1h-1v-1 0c0 1 0 0 0 0l-2-1-1-1v-1l-1-1v-1 0h-1v-1l-1-1-1-1h1v1h1l-1-1v-2l-1-1v-1h-1-1l1-1s-1 0 0 0h-1s0-1 0 0v-1-2-1-1-1c0-1 0 0 0 0l1-1h-1v-1l1-1v-1-2h1v0h-1l1-1v-1l1-2 1-1 1-1 1-1 3-2h1l1-1 1-1 1 1h1l1-1 1 1v-1l1 2h-1-1-1c0 1 0 0 0 0h1v1l1-1h1v3h-1v-1 1h-1v1h-1c0 1 0 0 0 0s0-1 0 0h-1 1l-1-1-1 1h0v1s-1 0 0 0h-1v1l-1 1v1h-2v1c1 0 0 0 0 0v1 1s-1 0 0 0l-1 1h-1 1l-1 1v-1 3l1 1h-1v1h1v1l-1-1v1h1v1h-1v2h1v2l1 1 1 1h-1l1 1v1c1 0 0 0 0 0v1h1-1v1h1v-1-1 1h1l1 1-1 1v-1l1 1v-1 1c1 0 0 0 0 0h1v1-1 1h2v1h4v1h7v-1h3c0-1 0 0 0 0v-1h2v-1 1h0l1-1c0 1 0 0 0 0 0-1 0 0 0 0h1v-1c-1 0-1 0 0 0v-1h1v-1l1-1v-1l1-1v-1-1-3-1-1-1-2l-1-1 1-1-1 1v-1l-1-2-1-1v-1l-1-1-1-1v-1l-2-1c-1 0 0 0 0 0l-2-1h-1-1l-1-1h-2-2-1l-1 1h-1v-4zM26 35v0c1 0 0 0 0 0zm2-6v1h-1 1v-1zm3-3l-1-1v1h1zm1 0h2-2zm0-1h1l-1-1v1zm-1 1l1-1-1 1zm-3 0h1-1v-1h2l1-1v1h-3s0 1 0 0v1zm-3 2l1-1h-1v1zm1 1v1h1v-1 1l-1-1v1h1v-1h1l1-1v-1c-1 0 0 0 0 0v-1h-1v2l-1 1 1-1h-1v-1h-1l1 1v1s-1 0 0 0h-1zm-1 0h0zm-1 2v-1-1 1l-1-1h0l1 1-1 1h1zm-1 1v-1h-1l1 1zm0 2s-1 0 0 0v1h1v-1l1-1 1-1h-1 1v-2h-1l1 1h-1v-1 1h-1 1l-1 1-1 2s0-1 0 0zm-3 3h1l1-2v-1s0-1 0 0h-1v3s-1 0 0 0v-1 1h-1zm3 1v-1 1h-1 1zm0 2h-1v-1 0l1-1-1 1h-1v-1 2h-1 0l1-1 1 1s-1 0 0 0h1zm-2 2v1l1 1v1-1-1-1-1 1h1v-1l-2 1zm-1 2v-1h0l1-1h-1v1h-1l1 1zm1 2v-1-1h-1v1c0 1 0 0 0 0l1 1zm2 3v-1h1v0l-1-1h0v-1h-1v1l1 2s0-1 0 0zm1 0h-1 1zm3 0h-1l1-1h-1v1h1zm-3 3v-1 1zm3 3v1-1-1h-1c0 1 0 0 0 0v1l1 1v-1h-1c1 0 1 0 0 0h1zm1 2v-1s-1 0 0 0h-1l1 1c-1 0-1 0 0 0zm3-1h-1 1zm0 3l-1-1h-1l1 1h1zm1 1l-1-1v1h1zm2 0h-1-1 2zm3 2v-1h-1 1v1zm2-3h0zm0 2v-1l-1 1v1l1-1h-1 1zm1-1v1h-1l1-1zm2 3l-1-1v1h1zm1-1h-1 1c0 1 0 0 0 0zm4-1h-1v0h1zm0-3h-1c0-1 0 0 0 0h1zm2 2h-1v1h1v-1zm-1-2v-1h-1l1 1zm2 3h-1 1zm1 0h-1l1 1v-1zm-2-4zm4-4l-1 1h1v-1zm2 0zm2 0h-1v1l1-1zm2-4h-1 1zm-1-1v0zm-2-1v1h1l-1-1zm0-1h0zm2-2v0zm-1-5v0zm0 0v-1 1zm1-1h1-1s0 1 0 0zm1-1v0zm-4-4v1l1-1h-1zm0-3v0zm-14-7h1l-1-1v1zM55 29zM60 51zM60 51zM31 30zM28 57c-1 0-1 0 0 0zM21 37zM58 49zM42 62zM28 30v-1 1zM30 25zM21 51z"/><path fill="#FFE08C" d="M20 48h0v-1 1 1h1l-1-1zM34 23h0zM21 50h-1v-1c1 1 1 1 0 0h1-1l1 1s0-1 0 0zM32 29l-1 1 1-1s1 0 0 0zM21 51zM21 51v0s1 0 0 0zM26 39v-1 1zM23 56h1v-1h-1v1zM38 64l-1-1v1h1zM25 40h0zM25 40zM26 58v1h1l-1-1zM41 22h-1 1zM59 53v1l1-1h-1zM49 63h0zM61 45v-1 1zM56 30l1 1-1-1zM34 63l-1 1 1-1c1 0 0 0 0 0zM32 30h-1 1zM31 30zM31 30zM26 58zM26 58zM26 58zM26 58zM60 51zM59 51h1-1zM58 57v-1-1 2zM23 35l1-1h-1v1zM25 33h-1 1z"/></g><path fill="#78561B" d="M44 4z"/><path fill="none" d="M40 14v-2h0v-1 1h1l-1-1h1v4h-1c-1 0 0 0 0 0v-1zm0 0l1-1h-1v1zm0 0v1s-1 0 0 0v-1zM40 9zM40 11v-1 1h-1 1zM39 12h-1l1 1v-1zM41 11v-1 1h-1 1v-1-1c1 0 0 0 0 0V8h-1v1l1-1v1s-1 0 0 0h-1v1h1s-1 1 0 0v1z"/><path fill="none" d="M40 12h-1v-1c1 1 0 0 0 0s0 1 0 0v1h1zM39 15s0-1 0 0v-1c0 1 0 0 0 0l-1 1v1l1-1zM38 20v1l1-1v-1 1h1v-1h-2v1zM37 20h0l1-1v0l-1 1zM37 22v-1c1 0 0 0 0 0v-1 1h-1 1v1zM39 10c1 0 0 0 0 0zM39 18l1-1-1 1h-1v-1 1h1zM40 17c0-1 0-1 0 0 0 0 0-1 0 0zM39 18s1 0 0 0l1 1-1-1zM41 7zM10 38c1 1-1 0 0 0a9 9 0 01-1 0h1-1l1 1h1v-1h-1zM40 8V7v1zM42 15h0zM44 4zM42 4v1h-1 1V4h1-1zM26 35v0l1 1s0-1 0 0v-1 0h-1zM42 6h-1v1l1-1zM40 6v0zM42 10zM41 6V5v1zM42 6V5v1zM41 11h1v-1l-1 1zM38 24v-1h1-1s1 0 0 0v-1 2c-1 0 0 0 0 0zM38 16c1 0 0 0 0 0zM19 39zM21 40h-1 1zM19 38h-1 1zM15 38c1 0 0 0 0 0zM16 39zM25 39h-1c1 0 0 0 0 0h1zM38 24h-1l1 1v-1zM26 37v-1 1zM26 39h1c-1 0 0 0 0 0v-1h-1v1zM26 39h-1 1zM25 36h-1 1c0-1 0 0 0 0zM9 40h1-1zM6 39H5h2-1zM7 41l-1-1s-2 0-1 1h2zM7 39H6h1zM5 41H4h1c1 0 0 0 0 0zM15 39h1l-1-1v1zM15 45h0zM16 40zM27 37l1-1h-1v1zM15 40s-1 0 0 0h0zM10 40H9h1zM13 39h-1 1z"/><path fill="none" d="M25 36v-1h-1v1h1zM37 29v1-1-1c1 0 0 0 0 0v1l-1 1h1v-1c-1 0 0 0 0 0zM36 33h-1s1 0 0 0h1v0zM38 32zM37 30h-1 1zM36 32v1l1-1h-1zM32 36h1v-1h-1v1h1-1zM36 34v0zM32 37v1h1v-1h-1zM34 35h-1 1zM30 35v0zM32 36h-1 1zM30 35zM37 26h1-1 0zM40 26v-1 1zM29 36h1v-1h-1v1z"/><path fill="#78561B" d="M27 35zM20 46h-1v1c0-1 0 0 0 0l-1-1h-1-1l-1-1-1 1-1-1h-1v-1s-1 0 0 0h-1-1-1-1l-1-1h2-1-1-1c1 0 0 0 0 0v-1H5c-1 0 0 0 0 0v-1H4s-1 0 0 0H3h0v-1 0h1v-1h1c1 0 0 0 0 0h1l1-1c-1 0 0 0 0 0h3c1 1-1 0 0 0a9 9 0 01-1 0h1-1l1 1h1v-1c1 0-1 0 0 0h1v-1h4v1-1h1v-1c0 1 0 0 0 0v1h1v-1h1s0 1 0 0h3v-1h-1 1v1h1v-1 1h1v-1l1-1v1l1-1v1h1-1v0l1 1s0-1 0 0v-1-1h1v1h1v-1h1c0-1 0 0 0 0h2v-1c0 1 0 0 0 0h1v1h1v-1 0h1s-1 0 0 0v-1h-1v-1h1-1 1v-2-1h1v-1-2h-1 1v0l1-2v-1h-1 0v-1-1-1h1v-1-1-1-1h1v-1-1-1-1l1-1V8 7c1 0 0 0 0 0l1-1V5 4h1V3l1 1v1h-1 1V4h1-1 3l-1 1v1s1 0 0 0c0 0 1 0 0 0v1c1 0 0 0 0 0h-1v1h1v1c0 1 0 0 0 0v1a46 46 0 00-1 0h1v1l-1 2c-1 0 0 0 0 0v2c-1 0 0 0 0 0v1h-1v1h-1 1v1h-1 1l-1 1h1v1h-1 1v1h-1v1h1l-1 1v-1c-1 0 0 0 0 0h-1v1h1v1h-1v1h1v1l-1 1v1c0 1 0 0 0 0v1h-1s0 1 0 0h1v1h-1 1v1h-1 1-1c1 0 0 0 0 0h1v1h-1c1 0 1 0 0 0v1s0-1 0 0v-1l-1 1h1v2s0 1 0 0l-1 1-1 1-2 1h-1-1l-1 1h-1-2-2-1l-1 1v-1 1h-1s0-1 0 0h-1l1-1h-1v1c0-1 0-1 0 0h-1-1l-1 1v-1h-1c0 1 0 1 0 0v1a8 8 0 00-1 0h-1s-1 0 0 0h-1c1 0 0 0 0 0h-2 2-1 1-1 1c-1 0 0 0 0 0h-1c1 0 0 0 0 0l1 1v-1 1h2c0 1 0 0 0 0h1-1 1v1h1v-1 4zm22-31h0zm0-5l-1 1h1v-1zm-1-3zm1-1V5v1zm-1 0V5v1zm0 0v1l1-1h-1zm-1 2V7 6v2zm-1 2c1 0 0 0 0 0 1 0 0 0 0 0zm2 1v-1 1h-1 1v-1-1c1 0 0 0 0 0V8h-1v1l1-1v1s-1 0 0 0h-1v1h1s-1 0 0 0v1zm-1 0v-1 1h-1 1zm0 1h-1v-1c1 1 0 0 0 0s0 1 0 0v1h1zm-1 1v-1h-1l1 1zm1 1v1s-1 0 0 0h1v-1-1-1-1h-1l1 1h-1v-1 1h1-1v2zm-2 2c1 0 0 0 0 0l1-1s0-1 0 0v-1c0 1 0 0 0 0l-1 1v1zm2 1c0-1 0-1 0 0 0 0 0-1 0 0zm0 2l-1-1s1 0 0 0l1-1-1 1h-1v-1 1h1l1 1zm-2 0v2l1-1v-1 1h1v-1h-2zm-1 1h0l1-1v0l-1 1zm0 2v-1c1 0 0 0 0 0v-1 1h-1 1v1zm1 2v-1h1-1s1 0 0 0v-1 2c-1 0 0 0 0 0zm0 1v-1h-1l1 1zm2 1v-1 1zm-2 0h-1 1-1 1zm-1 3v1-1-1c1 0 0 0 0 0v1l-1 1h1v-1c-1 0 0 0 0 0zm-1 1h1-1zm2 2zm-2 1l1-1h-1v1zm0 1v-1h-1s1 0 0 0h1v1zm0 1v-1 1zm-3 0h0zm0 2h-1v1h1v-1zm-1-1h1v-1h-1v1h1-1zm-1 0h0zm-1-1zm-1 0v1h1v-1 0h-1zm-2 1v1l1-1h-1zm-1 2v1h1c-1 0 0 0 0 0v-1h-1zm0-1v-1 1zm0 2h-1 1zm-1-3h-1 1c0-1 0 0 0 0zm-1 0h1v-1h-1v1zm1 3h-1c1 0 0 0 0 0h1zm-5 1h1-1zm-1-1zm-1-1h0zm-3 0c1 0 0 0 0 0zm0 1h1l-1-1v1zm1 1zm0 0h-1s-1-1 0 0h1zm-3-1h-1 1zm-3 1H9h1zm0 0H9h1zm-3-1H6h1zm-2 0h2-2zm0 2h2l-1-1s-2 0-1 1zm0 0c1 0 0 0 0 0H4h1zm11 4h-1 1zM4 41zM15 37zM15 37zM44 9zM36 30zM38 16zM16 39zM30 36zM42 10zM40 7zM36 25z"/><path fill="#78561B" d="M36 23v-1 1h-1 1zM41 4V3l-1 1h1zM36 24v-1 0s0 1 0 0l-1 1h1zM44 8V7v1zM36 25zM36 25v-1c-1 0 0 0 0 0v1zM42 18c1 0 0 0 0 0v-1 1zM35 28v-1 1zM33 33v0h-1 1zM42 19h-1 1zM41 19zM35 30h-1 1zM16 45l-1 1h1v-1zM17 36h0zM25 35v-1 1zM9 37H8h1zM4 41H3s1 0 0 0h1zM34 33zM44 8v0zM44 9zM44 9zM35 30zM35 30zM35 30zM35 30zM15 37zM15 37s1 0 0 0zM19 36zM40 15v-1 1s-1 0 0 0zM41 13h-1v1l1-1z"/><g><path fill="#78561B" d="M20 43z"/><path fill="none" d="M31 48h-1l-1-1v1h-1v-1h-1l1-1v1l1-1v1h2v1c0 1 0 0 0 0zm-1-1c-1 0 0 0 0 0zm1 1c0-1 0-1 0 0zM26 47l-1 1h1v-1c-1 0-1 0 0 0zM27 48v-1 1s0-1 0 0zM29 49v-1 1zM27 47v-1 0h-1-1-1 1v1s-1-1 0 0h-1 1v-1h1v1h-1 2zM28 48h-1 1v1h-1 1v-1h0z"/><path fill="none" d="M31 49v-1l-1 1h1v1c0-1 0 0 0 0l1-1h-1zM34 51v-1h1-2l1 1zM33 52v-1-1h-1l1 1v1l-1-1v1h1zM33 53v-1l-1 1h1zM26 48zM33 49l1-1h-1v1h-1v1h1-1 1v-1s0 1 0 0h1-1zM33 48z"/><path fill="none" d="M34 49s0-1 0 0c0 0-1 0 0 0 0 0 0-1 0 0zM24 46h-1 1zM44 67v-1-1l-1 1 1 2v-1zM24 47v0h-1l1 1v-1zM31 46h1l-1-1v1zM20 43c0 1 0 0 0 0zM20 45l1 1h1l-1-1h1-1-1v-1 1zM39 78v-1-1 0s0 1 0 0v-1 3-1 1zM22 46h0zM23 47zM26 46c1 0 0 0 0 0zM22 46v1-1zM22 45h1-1zM27 46h-1 1zM35 55v-1h1-1s0-1 0 0v-1h-1v2h1zM32 49s0 1 0 0v1-1 0zM41 70v2a27 27 0 000-2zM40 67v1c1 1 0 0 0 0l1 1v-1l-1-1zM41 72v1h1v-1h-1zM43 70h-1l1 1v-1zM42 70zM40 67v3c0-1 0-1 0 0v-3zM35 55zM39 75v1-1zM40 70v-2-1 3zM40 69v-1 1zM39 78a103 103 0 010-1v1zM44 62h-1 1zM45 63v-1 1zM44 59h1v-1l-1 1zM44 62v1l1-1h-1zM46 57zM42 69zM52 52v-1 1zM41 67zM39 74v-1 2a1 1 0 010-1zM41 66l1 1-1-1zM43 63s1 0 0 0v-1 1zM42 66l1 1v-1h-1zM39 78v0zM36 60v-1c-1 0 0 0 0 0s-1 0 0 0v1c-1 0 0 0 0 0-1 0 0 0 0 0zM36 64l1 1-1-1zM38 62zM36 61s0-1 0 0c0-1 0-1 0 0zM36 62v1h1l-1-1zM38 69v-1 1zM37 65zM39 67l1-1-1 1zM38 67l-1 1s0-1 0 0h1l-1 1 1-1v-1zM38 72v0zM38 69h0zM38 73v-1 1zM35 57v-1 1c1 0 0 0 0 0zM37 55h0c1 0 0 0 0 0v1l1-1h-1zM38 74v-2 2z"/><path fill="#78561B" d="M39 78zM56 50v0h-1v1h1v1l-1-1h-1l-1 1v-1 1h-1v1h-1-1l-1-1v1c1 0 0 0 0 0h-1v1l-1-1v3h-1 1l-1 1h1l-1 1v3l-1 1v4l-1 2h0v-1-1-1l-1 1 1 2v3l-1 1 1 1h-1v-1 2s0 1 0 0v2l-1-1v2h1-1c0-1 0 0 0 0v0c0-1 0-1 0 0 0 0 0-1 0 0l-1 1h0v-1 2c0-1 0 0 0 0v-1 1h-1s-1 0 0 0h-1v0s0-1 0 0v-1 0-1-1 0s0 1 0 0v-1 3h-1v-1-1c0 1 0-1 0 0v1l-1-1v-1-1-1-2l-1 1v-1-1-1l1-1-1 1v-1-1-1h-1v-2-1h-1 0v-1l1 1v-1-1l-1-1c0 1 0 0 0 0v-1-1l-1-1v-1 1h1v-1h-1l1-1-1-1c0-1 0 0 0 0h-1v-1-1l-1-1h1v-1l-1 1 1-1h-1 1-1c-1 0 0 0 0 0h-1l-2-1h-2l-2-1h-1l-1-1h-1l-1-1v-1l1 1h1v-1h-1 1-1-1 1l-1-1v1-2h1c0-1 0 0 0 0h2s0-1 0 0c1 0 0 0 0 0h1v0h-1l1 1h1-1 2l-1-1 1 1h1l2 1h1c0-1 0 0 0 0h2s0 1 0 0l1 1h-1 1c1 0 1 0 0 0l1 1v-1h1v1l1 1h1v1c-1 0 0 1 0 0l-1 1h0v1h1v1s1 0 0 0h-1l1 1a1 1 0 001 0l-1 1v1h1v4s0 1 0 0h1v1h-1 1v1h-1 1v1c1 0 1 0 0 0v0l1 1v2c0 1 0 0 0 0v0c0 1 0 0 0 0v1c0-1 0 0 0 0 0 1 0 0 0 0s0-1 0 0v2c0 1 0 0 0 0v-1c0 1 0 0 0 0v-1 1s0 1 0 0v-1c0 1 0 0 0 0v0c0 1 0 0 0 0s1 0 0 0h1l-1-1h1v-1-1-2h1v-1-1l1-2v-2-1h1v-2l1-1 1-1h1l1-1v1l1-1h1l2-1h2v-1h1l1 3zm-25-4h1l-1-1v1zm-5 0h0zm-3 0h1-1zm-1-1h1-1zm0 1v1-1zm1 0h-1 1zm1 2v-1 0h-1l1 1zm2 0zm1-1v-1 0h-1-1-1 1v1s-1-1 0 0h-1 1v-1h1v1h-1 1c-1 0-1 0 0 0l-1 1h1v-1h1zm0 1v-1 1s0-1 0 0zm1 0h-1 1v1h-1 1v-1h0zm1 0v0zm2 0s0 1 0 0v-1h-1-1v-1 0l-1 1v-1l-1 1h1v1h1v-1l1 1h1zm1 2v-1h-1v-1l-1 1h1v1c0-1 0 0 0 0l1-1s0 1 0 0v1-1 1zm1-2zm1 1s0-1 0 0c0 0 0-1 0 0 0 0-1 0 0 0h-1l1-1h-1v1h-1l1 1c-1 0 0 0 0 0h-1 1v-1s0 1 0 0h1zm-1 1l1 1v-1h1-2zm-1 2h1v-1-1h-1l1 1v1h-1v-1 1zm1 1v-1l-1 1h1zm2 2v-1h1-1s0-1 0 0v-1h-1v2h1zm0 0zm2 1l1-1h-1 0c1 0 0 0 0 0v1zm-2 1c1 0 0 0 0 0v-1 1zm1 3v-1c-1 0 0 0 0 0s-1 0 0 0v1c-1 0 0 0 0 0-1 0 0 0 0 0zm0 1s0-1 0 0c0-1 0-1 0 0zm2 1zm-2 1h1l-1-1v1zm1 2l-1-1 1 1zm0 0zm0 4l1-1v-1l-1 1s0-1 0 0h1l-1 1zm2-2l1-1-1 1zm-1 2v-1 1zm1 0h-1 1zm-1 5v-2 2zm0 0v-2 2zm1 1a1 1 0 010-1v-1 2zm1-6v-1-1 2zm-1 7v-1 1zm1-7v-1 1zm-1 9a103 103 0 010-1v1zm0 1v-1 1zm1-12v3c0-1 0-1 0 0v-3zm0 0v1c1 1 0 0 0 0l1 1v-1l-1-1zm1 3v0zm1 2h-1v1h1v-1zm1-2h-1l1 1v-1zm-1-1v0zm-1-2zm0-1l1 1-1-1zm1 0l1 1v-1h-1zm1-4v1s1 0 0 0v-1zm0 0h1-1zm1 1l1-1h-1v1zm1-1v1-1zm0-4l-1 1h1v-1zm1-1zm6-6v0zM47 57zM43 73zM43 73zM25 43zM36 61zM32 49zM42 70zM38 73zM26 46zM23 47zM33 56z"/><path fill="#78561B" d="M33 54h-1c1 0 0 0 0 0v1h1v-1zM20 47v-1s0 1 0 0v1zM33 55c-1 0 0 0 0 0h-1l1 1v-1zM24 44h1l-1-1v1zM33 56zM33 56c-1 0 0 0 0 0zM36 47l-1-1 1 1zM33 59l1 1v-1h-1zM36 71v-1 1s0 1 0 0zM36 48v-1 1c0-1 0 0 0 0s0-1 0 0zM36 48zM34 61v0zM52 52h0zM43 76v0zM39 79v0zM45 68v-1 1zM46 58h1s-1 0 0 0v-1l-1 1zM35 67s0 1 0 0v0zM25 43zM25 43zM25 43zM34 61zM34 61zM34 61zM34 61zM43 73zM43 73v0zM42 79v-1 1zM31 48c0-1 0-1 0 0zM30 47c-1 0 0 0 0 0z"/></g><g><path fill="#78561B" d="M55 48v-1 1z"/><path fill="none" d="M68 47h-1-2 1l-2 1 1-1h-2 1-1l1-1v0h1c-1 0 0 0 0 0h3v1s-1 0 0 0zm-2-1h-1v1l1-1zm1 0v1h1l-1-1s-1 0 0 0zM62 49v0zM63 48v1l1-1h-1zM66 48h1-1zM63 47h-1l1 1v-1h-1l-1 1h-1 1-1 1-1v1h1v-1h1-1 1s-1 0 0 0c0 0 1 0 0 0h1v-1zM65 48h-1 1v0h0zM70 47h-1-1 3v-1 1h-1zM73 45v-1 1h-1-1 2zM74 45h-1 0s1 0 0 0h2-1zM74 44v0h1-1zM62 49h1c-1 0 0 0 0 0h-1zM71 46h-2 3s-1 0 0 0h0l-1-1v1zM68 46h1-1z"/><path fill="none" d="M70 45v1l1-1h-1-1 1zM59 49v-1 1zM44 28v-1-1 2zM60 49v1l-1-1v1h2v-1h-1zM63 45h-1 1zM55 48zM56 49h1v-1l-1 1h-1 1zM50 37v1s0-1 0 0h1v-1 0h-1zM58 49h1-1zM59 50v-1 1zM62 47zM58 49v1-1zM58 48h-1 1zM62 47zM70 43h-1l1 1h-1 3l-1-1h-1zM71 46l1 1h-1 1v-1h-1s1 0 0 0zM43 34v0zM42 37h1l-1-1v1zM44 34zM44 31c0-1 0 0 0 0zM43 31zM47 40zM70 43h-1 1zM50 38h-1 1zM48 40h1v0h-1zM48 40zM48 37h0zM43 23h-1v1l1-1zM44 23zM42 20h1v-1l-1 1zM44 23h-1 1zM43 18h1v-1l-1 1zM43 30l1 1v-1h-1zM44 8V7h-1l1 1zM42 30zM50 39h1l-1-1v1zM42 29s1 0 0 0zM43 24zM43 27v0zM49 37v-1l-1 1h1zM65 42h-1 1v-1 1c0-1 0 0 0 0h-1 1zM61 41v-1h-1v1h1zM62 43h-1 1zM64 41v1h-1 1v-1zM62 41v-1l-1 1h1zM55 40h1-1zM60 41l-1-1v1h1zM55 41l-1 1h1v-1zM57 40v-1h-1v1h1zM54 39v-1l-1 1h1zM55 40h-1 1z"/><path fill="none" d="M54 38h-1l1 1v-1zM69 43h-1 1zM63 44h0zM53 38v0z"/><path fill="#78561B" d="M51 37zM43 3h1l-1 1h1s1 0 0 0v1 5h-1 1v2-1 1h1l-1 1h-1 1v4s1 1 0 0v1l1 1h-1v0h1v1l-1 1h1v1h-1v1h1v1s-1 0 0 0v3s0-1 0 0v1h-1v-1-1 2h1v2l1 1h-1-1 1v1l1 1-1-1h1v1h-1 1v1c-1 0-1 0 0 0l-1 1h1c0 1 1 0 0 0h1l-1 1 1-1v1h3v1-1 1c1-1 1 0 0 0v1s0-1 0 0h1v-1 0h1l1 1v-1c-1 0 0 0 0 0l1 1v-1l1 1c-1 0 0 0 0 0h2v1h1v-1 1h5v1c-1 0 0 0 0 0h2l1 1h4v1h3-1-1 1s-1 0 0 0v1h2v1l1-1v2 1s-1 0 0 0h-1 0v1h-1l-1 1v-1h-1v1h-1l-3 1h-4v1h-2-4-1c0 1 0 0 0 0v-1h2-1v-1l-1 1-1-1v-1s1 0 0 0h1v-1h3c1 0 1 0 0 0l1-1h-1 3c0-1 0-1 0 0 1 0 0 0 0 0 1 0 0 0 0 0-1-1 0 0 0 0 1 0-1-1 0 0h1-1 2c-1 0-1 0 0 0h-1 2-1-1l-1-1 1 1h1-1v-1l1 1h1l-2-1h-1c1 0 0 0 0 0h3c1 0 0 0 0 0h-1-1 1-1-1 2c-2 0 0 0 0 0h-2 0c1 0 0 0 0 0h1v-1l-1 1c1 0 1 0 0 0h-1 1-1 1-1v-1 1h-1-1l-1-1h-1l-2-1h-1-1-1l-1-1c-1 0 0 0 0 0h-1c0 1 0 0 0 0h-1-1l-1-1v1l-1-1h-1 1l-1-1v1l-1-1-1-1-1-1v-2l-1-1v-2-1-1-3-4-1l-1-1v-1-1-1-1-1h1v-1-1l-1-1s1 0 0 0v-2c1 0 1 0 0 0v-1-1-3c1 0 0 0 0 0V4l3-1zm20 42h-1 1zm-1 2s0-1 0 0zm-3 2v-1 1zm-1-1h-1 1zm0 1v1-1zm0 0h1-1zm3 0h-1v1l-1-1v1h2v-1zm2 0h-1 1c-1 0 0 0 0 0zm-1-1h1v-1h-1l1 1v-1h-1l-1 1h-1 1-1 1-1v1h1v-1h1-1 1v0s-1 0 0 0c0 0 1 0 0 0zm2 0h-1v1l1-1zm1 0h-1 1v0h0zm2 0h-1 1zm1-1c-1 0 0 0 0 0v-1h-1-1-1s-1 0 0 0h-1v0l-1 1h2l-1 1 2-1h-1 3zm4-1h-1v1h-1-1-1 3v-1l1 1h-1 1v-1zm-3 0h-1 1zm0-1h1v1l1-1v1h-2 3s-1 0 0 0h0l-1-1s1 0 0 0h-1-1zm3 0h1v-1 1h-1-1 1zm3 0h-1-1 0s1 0 0 0h2zm-1-1v0h1-1zm-4-1h-1l1 1h-1 3l-1-1h-1zm-1 0h0zm-6 1h0zm5-1h0zm-3-1h-1 1v-1 1c0-1 0 0 0 0h-1 1zm-1-1v1h-1 1v-1zm-3 2h0zm0-2h1c-1 0 0 0 0 0v-1l-1 1zm-1 0h1v-1h-1v1zm-1 0h1l-1-1v1zm-3-2v1h1v-1h-1zm-1 3v-1l-1 1h1zm0-2h1-1zm-1 0h0zm-1-2l1 1v-1h-1zm0 0v1h1v-1l-1 1v-1zm-3 0v1h1l-1-1zm-1 2h-1 1v0zm0-2h1-1zm-1 2zm0-3h0zm0 0h1l-1-1v1zm-1 3zm-5-4v1h1l-1-1zm1-2v0zm1 0zm0-3c0-1 0 0 0 0zm-1-1l1 1h-1 1v-1h-1zm-1 0zm0-1s1 0 0 0zm1-2v0zm0-3zm-1 0l1-1h-1v1zm2-1h-1 1zm0 0zm-1-4l-1 1h1v-1zm1-2l-1 1h1v-1zm0-10h-1l1 1V7zM44 17zM45 31zM45 31zM59 45zM64 41zM71 46zM43 31h0zM53 39zM62 47zM59 49zM73 42zM74 43h1-1z"/><path fill="#78561B" d="M57 50h-1v1h1v-1zM74 43s-1 0 0 0h1l-1-1v1s-1 0 0 0zM58 46h0zM73 42z"/><path fill="#78561B" d="M73 42l1 1v-1h-1zM62 45v-1 1zM69 41h0zM57 38c0-1 0 0 0 0s-1 0 0 0zM63 45h2-1-1zM64 45zM65 40s0-1 0 0h-1 1zM44 7zM46 33zM50 36h-1 1zM45 28h1v-1h-1v1zM44 18h1s-1 0 0 0h-1zM59 38h-1 1zM59 46v-1 1zM59 45zM59 45zM65 40zM65 40zM65 40zM65 40zM45 31zM45 31zM46 34zM68 47l-1-1s-1 0 0 0v1h1zM65 47l1-1h-1v1z"/></g></svg>