<?xml-stylesheet type="text/css" href="../style.css"?>
<svg xmlns="http://www.w3.org/2000/svg" xmlns:xlink="http://www.w3.org/1999/xlink" width="69.515" height="79" viewBox="0 0 69.515 79" id="info-star1">
  <defs>
    <clipPath id="clip-path">
      <rect id="사각형_64" data-name="사각형 64" width="69.515" height="79" fill="none"/>
    </clipPath>
  </defs>
  <g id="그룹_288" data-name="그룹 288" transform="translate(0 0)">
    <g id="그룹_285" data-name="그룹 285" transform="translate(0 0)">
      <g id="그룹_284" data-name="그룹 284" clip-path="url(#clip-path)">
        <path id="패스_9994" data-name="패스 9994" d="M54.254,32.124A24.758,24.758,0,1,1,29.5,7.366,24.758,24.758,0,0,1,54.254,32.124" transform="translate(5.926 9.213)" fill="#ffe08c"/>
      </g>
    </g>
    <g id="그룹_287" data-name="그룹 287" transform="translate(0 0)">
      <g id="그룹_286" data-name="그룹 286" clip-path="url(#clip-path)">
        <path id="패스_9995" data-name="패스 9995" d="M35.118,8.146l.72,13.484.144,3.336c.047,1.269.169,2.379.261,3.5l.3,3.367a10.67,10.67,0,0,0,.4,2.2,6.527,6.527,0,0,0,1.393,2.514,6.717,6.717,0,0,0,3.059,1.778c.9.252,1.492.378,2.221.565l4.207,1.04L55,41.724l1.535.4c.092.05.315.016.27.182-.09.1-.261.074-.385.117l-.79.164L55,42.737l-2.208.612q-3.6,1.036-7.144,2.248L42.09,46.856a6.368,6.368,0,0,0-2.708,1.769A6.02,6.02,0,0,0,38.1,51.7l-.07.5-.047.212-.2.9-.41,1.794-.819,3.588-.779,3.27c-.1.227-.178-.137-.18-.243l-.086-.466-.171-.887q-.756-3.909-1.533-7.9-.388-2.049-.779-4.119l-.2-1.083c-.137-.653-.234-1.33-.405-1.969a3.554,3.554,0,0,0-.934-1.555,10.412,10.412,0,0,0-1.614-.887q-2.583-.658-5.181-1.326l-4.4-1.078L16.1,39.431c-.459-.126-.241-.09-.3-.119.045-.063.128,0-.02-.063a.036.036,0,0,1-.009-.047l.029-.038.029-.023.016-.014.362-.07c2.309-.446,4.589-.93,6.844-1.429l6.7-1.528a7.266,7.266,0,0,0,2.7-.887,4.168,4.168,0,0,0,1.63-2.282,8.789,8.789,0,0,0,.3-1.42l.115-.936.189-1.679c.486-4.474,1.026-8.861,1.411-13.266a103.54,103.54,0,0,0,.185-12.942c-.023-.52-.459-.315-.529.2C35.165,7.3,34.528,11.673,33.65,16c-.894,4.339-1.8,8.762-2.564,13.153l-.277,1.573a2.657,2.657,0,0,1-.286.968,1.1,1.1,0,0,1-.858.477l-1.362.252-6.572,1.229-6.554,1.188c-2.937.5-5.946.945-9.046,1.332l-1.263.284-.957.295-1.731.529c-.563.18-1.042.279-1.566.421a2.745,2.745,0,0,0-.383.115A.623.623,0,0,0,0,38.292a.673.673,0,0,0,.155.52A2.129,2.129,0,0,0,.518,39c1,.468,1.918.97,3.205,1.548.329.144.608.29.975.43l1.344.407c.864.277,1.882.524,2.818.79,1.909.5,3.986,1.029,5.836,1.463l4.524,1.065,4.4,1.051,4.04,1.02c.272.106.754.068.752.477l.178.968.6,3.185,1.2,6.372,1.461,7.727.9,4.717a11.007,11.007,0,0,0,1.128,3.255l.927,1.915c.072.142.126.286.212.423a.788.788,0,0,0,.709.185.478.478,0,0,0,.428-.329l.216-.387,1.042-1.731a7.956,7.956,0,0,0,1.227-3.122l3.642-15.2.367-1.506.092-.378a3.825,3.825,0,0,0,.11-.578,3.8,3.8,0,0,1,.086-.482A1.023,1.023,0,0,1,43.7,51.5c1.789-.632,3.824-1.3,5.742-1.893q2.92-.9,5.874-1.677l4.625-1.17q2.66-.628,5.566-1.206c.614-.277,1.371-.558,1.873-.833.324-.259.738-.56.981-.786L69,43.307l.254-.259a.61.61,0,0,0,.23-.446,1.747,1.747,0,0,0-.056-.846c-.065-.115-.135-.2-.2-.3l-.477-.655a4.987,4.987,0,0,0-2.242-1.749L51.3,35.094,46.04,33.712l-2.615-.684a4.6,4.6,0,0,1-.808-.272.235.235,0,0,1-.1-.09.591.591,0,0,1-.063-.155,3.485,3.485,0,0,1-.14-.659L42.12,29.4c-.115-1.778-.293-3.543-.295-5.138-.2-6.786-.1-13.191-1.976-19.111-1.49-4.648-5.021-2.429-4.731,3" transform="translate(0 2.984)" fill="#876935"/>
      </g>
    </g>
  </g>
</svg>
