<?xml-stylesheet type="text/css" href="../style.css"?>
<svg version="1.2" baseProfile="tiny" id="info-star2" xmlns="http://www.w3.org/2000/svg" width="66" height="86" overflow="visible" xml:space="preserve"><g id="light-2"><path fill="#FFE08C" d="M31 19c-17 3-13 30 3 30 23 1 19-35-3-30zM31 21z"/><path fill="none" d="M20 26h1v-1-1-1 1h1v-1 0s1 0 0 0l1 1-1 1v-1 2h-1v1h-1v0c-1 0 0 0 0 0v-1zm1 0h1l-1-1v1zm0 0l-1 1 1-1zM23 21v-1 1h0zM22 22h1-2v1l1-1zM20 24h-1 1s-1 0 0 0zM23 23h1v-1l1-1 1-1h-1v0h-1 1-1 1l-1 1v1s-1 0 0 0v-1h-1v1c1 0 0 0 0 0v1z"/><path fill="none" d="M21 24v-1-1s0 1 0 0h-1v1c1 0 1 0 0 0v1h1zM19 27h1v-1h-1c0 1 0 0 0 0l-1 1v2l1-2zM19 33v1h1l-1-1h1-1 0zM18 34c0-1 0 0 0 0v0h-1c0 1 0 0 0 0v1l1-1zM18 36v-1h-1 1l-1 1s0-1 0 0h1zM22 21c0-1 0 0 0 0 1 0 0 0 0 0zM19 31l1-1h-1l-1 1v-1 1h-1 1s0 1 0 0h1v0zM20 29v0zM20 31h-1 1-1v1h1v-1zM26 20h1l-1-1v1zM51 35v-1l-1-1v2l1 1v-1zM25 19h-1 2v-1l-2 1h1zM23 27v1h1l-1-1zM31 21zM30 19h-1-1 1v1l1-1h0zM41 50v-1h-1v0s0 1 0 0l-1 1h1l-1-1h1v1h1zM28 19h-1v1l1-1zM27 18h-1v1l1-1zM24 23zM28 19v-1h-1 1v1zM28 20h0zM24 23zM20 39h1-1v-1h1l-1-1h0l-1-1v1l1 2s0-1 0 0zM18 29v-1 1zM46 42h0zM44 42v1h1v-1h-1zM47 42h0zM50 39h-1 1zM49 39zM41 44v1h1l-1-1zM20 39h0zM41 48h-1 1zM40 46c0-1 0 0 0 0l-1-1 1 1zM41 46v-1h-1l1 1zM43 49h-1 1zM48 30v-1 1zM50 30v-1 1zM47 26zM49 30h1-1zM47 24v-1h-1l1 1zM49 38v0zM36 17h-1 1zM47 38h1l-1-1v1zM39 48v1l1-1h-1zM48 36h-1 1zM49 31l-1-1v1h1zM49 35zM43 49v0zM24 44v-1l-1 1v-1h-1l1-1-1 1 1 1v0c0 1 0 0 0 0v-1l1 1h-1 1zM27 47l-1 1h2l-1-1zM27 44s-1 0 0 0zM24 45s-1 0 0 0v-1 1c-1 0 0 0 0 0zM25 46l1 1v-1h-1zM33 48s1 0 0 0l-1 1h1v-1c0 1 0 0 0 0 1 0 0 0 0 0zM28 48h1l-1-1v1zM34 47v-1s0 1 0 0h-1l1 1zM31 49h1c-1 0 0 0 0 0h-1zM36 50v-1 1zM34 48v0h1-1zM35 50h0c1 0 0 0 0 0zM21 41v-1 1c1-1 0 0 0 0zM24 38h-1 1-1c1 0 0 0 0 0v1h1v-1zM37 50l-1-1v1h1z"/><path fill="#FFE08C" d="M40 50zM30 18v-1h1v-1c0 1 0 0 0 0h2v1l1-1v1l1-1 1 1v-1h1l2 1v1l1-1h1v1c0-1 0 0 0 0h1l1 1-1 1 1-1h1v1h1l1 1v1c1 0 0 0 0 0h1s0 1 0 0c0 0 0 1 0 0v1l1 1h1l-1 1c1 0 0 0 0 0h1s-1 0 0 0v2h1v-1 3l1 1v2l1 2h-1l1 1v1l-1-1v0l-1-1h1v0h-1v1l1 1v2s1 0 0 0v2c1 0 0 0 0 0h-1v1c1 0 0 0 0 0v1h0v1l-1 1-1 1v1h-1 0v1h-1l1 1c0-1 0 0 0 0h-1-1v1h-2c1 2 0 1-1 2v-1 1h-1v-1 1c0-1 0-1 0 0l-1-1h1v-1h-1v0s0 1 0 0l-1 1h1l-1-1h1v1c0 1 0 0 0 0v1h-1-1-1c1 0 0 0 0 0h-1v1l-1-1h-1-1-2v-1 1h-1l-1-1h-1l-1-1h-1l-1-1h-1s0-1 0 0v-1c0 1 0 0 0 0l-1-1-1-1h-1v-1h-1 1v-1l-1 1v-1l-1-2v1l-1-1h1v0c1 0 0 0 0 0s0-1 0 0v-1l-1-2v-1h-1-1l1-1s0 1 0 0h-1v-1-1-1l1-1h-1v-1h0l1-1v-1-1-2h1v0-1l1-2 1-1 1-1 1-1 2-1 1-1 2-1 1 1v-1h1l1 1c0-1 0-1 0 0l1 1h-1-1-1 1v1l1-1h1v3c0-1 0 0 0 0l-1-1v1h-1s1 1 0 0v1s0-1 0 0h-1v-1h-1s0 1 0 0v1c1 0 0 0 0 0v1c0-1 0-1 0 0h-1v1l-1 1h-1s1 0 0 0v1c1 0 0 0 0 0v1c-1-1 0 0 0 0v1h-1-1 1-1v1h1v1l-1-1v1l1 1v1h-1 0v1h1v1s1 0 0 0h-1v1h1a2 2 0 001 0l-1 1v1h1l1 1v0h-1l1 1v2s1 0 0 0h1v-1 1h1v1s0-1 0 0h-1 2v1h2c-1 0 0 0 0 0l1 1h6l1 1v-1 0h3c0-1 0 0 0 0v-1h2v-1 0s1 0 0 0l1-1 1-1c-1 0 0 0 0 0v-1-1l1-1v-1-2-1-1-1-2h-1l1-1h-1 1-1v-1l-1-2-1-1h-1v-1l-1-1h-1s1 0 0 0l-1-1h-1l-2-1h-1-1-1l-1 1-1-1-1-3zm-7 9v1h1l-1-1zm1-4zm3-3l-1-1v1h1zm1 0h0zm0-1v-1h-1 1v1zm-1 0v1l1-1h-1zm-3 0h1-1 2l1-1h-1v0l-2 1zm-2 2v-1 1c1 0 0 0 0 0zm1 1v1h1v-1l1-1 1-1h-1v0h-1 1-1 1l-1 1v1h-1 1v-1h-1v-1 1h1-1v1c1 0 0 0 0 0zm-2 1l1-1h1-2v1zm0 1v-1-1s0 1 0 0h-1v1c1 0 1 0 0 0v1h1zm-1 0s-1 0 0 0h-1 1zm0 2v1s-1 0 0 0v0h1l1-1v-1-1 1l1-1-1-1c1 0 0 0 0 0v1h-1v2h-1zm-2 3c1 0 0 0 0 0l1-2h1l-1-1c0 1 0 0 0 0l-1 1v2zm2 1v-1 1zm0 2v-1h-1l1-1h-1l-1 1v-1 1h-1 1s0 1 0 0h1v0h1-1v1h1zm-1 1v1h1l-1-1h1-1 0zm-2 2l1-1c0-1 0 0 0 0v0h-1c0 1 0 0 0 0v1zm1 1v-1h-1 1l-1 1s0-1 0 0h1zm2 3h1-1v-1h1l-1-1h0l-1-1v1l1 2s0-1 0 0zm1 0h-1 1zm3 0v-1h-1 1-1c1 0 0 0 0 0v1h1zm-3 2c1-1 0 0 0 0v-1 1zm3 3h-1 1v-1l-1 1v-1h-1l1-1-1 1 1 1v0c0 1 0 0 0 0h1zm0 1s-1 0 0 0v-1 1c-1 0 0 0 0 0zm3-1s-1 0 0 0zm-1 3v-1h-1l1 1zm2 1l-1-1-1 1h2zm1 0l-1-1v1h1zm3 1h-1 1c-1 0 0 0 0 0zm1-3l1 1v-1s0 1 0 0h-1zm0 2s1 0 0 0l-1 1h1v-1c0 1 0 0 0 0 1 0 0 0 0 0zm2 0h-1v0h1zm1 2h-1c1 0 0 0 0 0h1zm1 0l-1-1v1h1zm3-2h-1v1l1-1zm0-2c0-1 0 0 0 0l-1-1 1 1zm1 2h-1 1zm0-2v-1h-1l1 1zm2 3h-1 1zm0 0v0zm-2-5v1h1l-1-1zm3-2v1h1v-1h-1zm3 0h-1 1zm1 0h-1 1zm2-3h-1 1zm-1-1v0zm-2-1v1h1l-1-1zm0-1h0zm2-1zm-1-5v1h1l-1-1zm0 0v-1 1zm1 0h1-1zm1-1v0zm-3-3zm-1-3l1 1v-1h-1zm-11-6h0zM47 22zM51 40zM51 40zM27 24zM24 45zM18 29zM49 39zM36 49zM24 23zM26 19zM18 41z"/><path fill="#FFE08C" d="M17 38h1l-1-1h1-1v2h1l-1-1zM29 17h1-1zM18 39h-1 1c-1 0 0 0 0 0h-1l1 1v-1zM28 23h-1 1zM18 41zM19 41l-1-1v1h1zM23 31v-1 1zM20 44l1 1-1-1h1-1zM32 51v0zM23 32v-1h-1l1 1zM22 32v-1 1zM23 47h-1 1zM35 16h-1 1zM50 42l1 1v-1h-1zM42 50v1h1l-1-1zM52 35zM48 23v0zM29 51c1 0 0 0 0 0zM28 23l-1 1h1v-1zM27 24zM27 24zM22 47zM23 46h-1v1l1-1zM22 47zM22 47zM51 40zM50 40h0zM49 45h1v-1l-1 1zM20 27l1-1-1 1zM21 25v1h1l-1-1z"/></g><path fill="#78561B" d="M38 2z"/><path fill="none" d="M33 15v-1l1-1h-1s0-1 0 0v-1h1v-1h0v2h0v2h-1v0c-1 0 0 0 0 0zm1-1v-1 1zm-1 1c0 1 0 0 0 0s1 0 0 0zM34 8h-1v1h1V8zM33 10h0s1 0 0 0v0zM32 12v0zM34 10h1-1v1l1-1V9 8 7v0h-1s1 0 0 0v0l1 1v1h-1V8c0 1 0 1 0 0v2zM33 12v-1h-1c1 0 1 0 0 0l1 1zM32 16v-1h0v-1 1h-1v2l1-1zM31 21v2l1-1v-1 0h1-2zM30 22l1-1h-1 1s-1 0 0 0h-1v1zM30 24v-1-1 1h-1 1v1zM33 9v1-1zM32 19l1-1-1 1h-1v-1s1 0 0 0v1s0 1 0 0h1v0zM33 17v0zM32 19s1 0 0 0v1h1l-1-1zM35 6V5v1zM20 37h0zM34 7h-1V6l1-1s0 1 0 0l-1 2h1zM35 15v1l1-1h-1zM38 2h-1 1zM36 2l-1 1v1l1-1V2 1v1zM6 30c1 0 0 0 0 0h1v-1l-1 1zM35 4v0zM34 5zM35 9zM35 4h-1 1zM36 4V3v1zM35 10V9v1zM31 27v-1 0h1v-1h-1v-1 1l-1 1 1 1z"/><path fill="none" d="M31 17v-1 1c1 0 0 0 0 0zM13 33v0zM11 31v1s1 0 0 0h1v-1h-1zM13 34v1l1-1h-1zM17 36v0zM17 35zM7 30v0zM31 27h-1 1zM6 31H5h1zM7 32l-1 1 1 1-1-1 1-1z"/><path fill="none" d="M7 32v-1 2c-1 0 0 0 0 0v-1zM5 33l-1-1v-1 2h1zM26 37h1l-1-1v1zM25 38l1 1h1l-1-1h-1zM30 39l-1 1h1v-1zM26 38v-1 1zM29 42zM18 35h-1 1zM31 55v2h1v-1l-1-1zM18 34h1-1zM7 31h1-1zM20 34l-1 1h1v-1zM25 37h0c0-1 0 0 0 0zM21 36zM5 33H4l1 1v-1zM24 28h2c0-1 0 0 0 0h1-1-1-1 1-1zM20 29v-1l-1 1h1zM22 30h0v0zM24 28v0zM22 28h-1l-1 1h1l1-1zM13 31h1v-1h-1 1v1h-1zM19 29h-1 1zM14 32h-1 1zM16 30h-1l1-1h-1v0h-1l1 1h1zM11 30h-1 1zM13 31v-1l-1 1h1zM11 29s0 1 0 0h-1l1 1v-1zM29 27h-1 1zM31 29h-1l1 1v-1zM9 30h2-1-1z"/><path fill="#78561B" d="M7 29zM33 61v2c0-2-1 0-1 0v-1-2c0-1 0 0 0 0v-1-1h-1v-2-2l-1-1v-1l1-1h-1v-1-1 0h-1v-1h1v-1h-1v-1-2-1l-1-1 1-1-1-1h1-1s1 0 0 0v-1h-1c0 1 0 1 0 0h-1-1v-1h-1-1-2s1 0 0 0h-1v-1h0-1-1-1-1v-1h-1c0 1 0 0 0 0s-1 0 0 0h-1v0h-1-1 0l-1-1v1h-1v-1 1-1H9 8c1 0 1 0 0 0v-1l-1 1v-1H5a3 3 0 01-2-1v-2 0l1-1 1-1h1v0s0 1 0 0h1l-1 1c1 0 0 0 0 0h1v0l-1-1h1c0 1 0 0 0 0h4v-1 1h1v-1 1l1-1h2s0 1 0 0v0h3l2-1h1v-1 1h1v-1 1c-1 0-1 0 0 0h1l1-1h3l2-1h-1s1 0 0 0h1v1h-1 1l1-1-1-1h0v-1c0 1 0 0 0 0v-1-2h1v-1s0 1 0 0v-1-1-1l1-1v-1-2l1-1v-1-1l1-2V6 5 4h1V3 2h1V1h1v1l-1 1v1l1-1V2 1l1 1h1v3c0 1 0 0 0 0v1h-1 1V5l-1 1v1s0-1 0 0v1h0v2l-1 3v3s-1 0 0 0l-1 1c0 1 0 1 0 0h-1v1h1v1h-1 1l-1 1 1 1h-1 1l-1 1v3-1 0h-1s1 0 0 0v1h1v1l-1 2h-1v1l-1 1h-2-1-1 0v0h-2 1v1h-1v-1 1h-1-1 1c0-1 0 0 0 0h-1v0h-2v1h-1-2l-1 1h-3-3l-1 1-1-1H8v1H6l1-1 1-2-2-1h2s0 1 0 0h1l-1 1h1s0-1 0 0h1c0-1 0 0 0 0h2l1 1h4v1h4l1 1h3v1h3v1l1-1v1h1l1 1 1 2v3l1 1v1l-1 1 1 1v3l1 1v2l-1 9zm2-46v1l1-1h-1zm0-6v0zm0-4h-1l1 1V5zm1-1V3v1zm-1 0h-1 1zm0 1V4v1zm-2 2h1-1V6l1-1s0 1 0 0l-1 2zm0 3V9v1zm1 0h1-1v1l1-1V9 8 7v0h-1s1 0 0 0v0l1 1v1h-1V8c0 1 0 1 0 0h-1v1l1-1v2zm-1 1v-1h0s1 0 0 0v1zm0 1v-1h-1c1 0 1 0 0 0l1 1zm-1 1v-1 1zm1 2s-1 0 0 0v0h1v-1-1h0v-1-1h1-1v1s0-1 0 0h-1v1c0-1 0 0 0 0h1l-1 1v1zm-2 2c1 0 0 0 0 0l1-1v-1h0c0-1 0-1 0 0h-1v2zm2 1v-1 1zm0 2l-1-1s1 0 0 0l1-1-1 1h-1v-1s1 0 0 0v1s0 1 0 0h1v1h1zm-2 1v2l1-1v-1 0h1-2zm-1 1l1-1h-1 1s-1 0 0 0h-1v1zm0 2v-1-1 1h-1 1v1zm1 3v-1 0h1v-1h-1v-1 1l-1 1 1 1zm-1 0h1-1zm0 2l1 1v-1h-1zm-2-2h0zm-3 1h-1 2c0-1 0 0 0 0h1-1-1-1 1zm-2 0h1v0h-1c1 0 1 0 0 0zm-1 3v-1h0v1zm-2-2h1l1-1h-1l-1 1zm-1 0h1v-1l-1 1zm-1 0h0zm-4 0l1 1h0l1-1h-1v0h-1zm0 3h-1 1zm-1-1h1v-1h-1 1v1h-1zm-1 0h1v-1l-1 1zm-2-2l1 1v-1s0 1 0 0h-1zm0 1H9h2-1-1 1zm-3 1h1-1zm-1 2l1-1-1 1 1 1-1-1zm-1-2h1-1zm2 1v-1 2c-1 0 0 0 0 0v-1zm-2 1l-1-1v-1 2h1zm0 1v-1H4l1 1zm2-4v0zm5 1h-1v1s1 0 0 0h1v-1zm1 2v0zm1 1h-1v1l1-1zm3 2v0zm1-1h-1 1zm1-1h-1 1zm1 0l-1 1h1v-1zm1 2zm5 1h-1c0-1 0 0 0 0h1zm0-1v1h1l-1-1zm0 2v-1 1zm1 1l-1-1h-1l1 1h1zm3 1v-1l-1 1h1zm-1 2zm3 15v-1l-1-1v2h1zM28 42zM16 37zM16 37zM38 8zM24 28h-1 1zM31 17zM17 35zM10 30zM35 9zM34 5zM29 25z"/><path fill="#78561B" d="M29 25v-1 1h-1 1zM34 2l1-1h-1v1zM29 25c-1-1 0 0 0 0zM37 6v1l1-1h-1zM29 25zM29 25c-1 0 0 0 0 0zM35 19v-1 1zM26 26zM14 28c0-1 0 0 0 0s-1 0 0 0zM35 20h-1 1zM34 20zM23 26v0zM31 57v0zM14 37h-1 1zM5 29l-2 1 1-1h1zM20 38h1-1zM28 41v0zM16 28l1-1h-1c0 1 0 0 0 0v1zM38 7zM38 8zM38 8zM23 26zM23 27v-1 1zM23 26zM23 26zM16 37zM16 36v0zM11 36h1-1zM33 15c0 1 0 0 0 0s1 0 0 0zM34 13v0z"/><g><path fill="#78561B" d="M34 53z"/><path fill="none" d="M37 53v4l-1-1v1-1-2-1 1s0-1 0 0v-1l1-1v1c1 0 0 0 0 0zm0 1h-1 1zm0-1s1 0 0 0c0-1 0 0 0 0 0-1 0-1 0 0zM36 61v-1 1zM36 60v-2 2s0-1 0 0v1l1-1v-1h-1v1z"/><path fill="none" d="M37 57l1 1v-1l-1-1v1zM36 58v-1 0s0-1 0 0v1h-1v1l1-1v1l-1 1h1c0 1 0 0 0 0v-1-1zM37 58v0c0-1 0 0 0 0zM38 52v1s0 1 0 0v1s0 1 0 0l1-1v-3l-1 1v1zM39 46v-1-1 1h-1l1 1h-1 1l-1 1v-1h1-1l1 1v-1zM40 45v1h-1l1 1v-1-1l1 1v-1h-1zM40 44v1l1-1h-1zM36 62v-1 1zM38 48v1h-1 2v-1h-1c1 0 1 0 0 0 1 0 0 0 0 0zM37 50h1l-1-1v1zM38 48v-1 1zM35 62v0zM41 29h-1v-1l-1 1h2zM35 63zM35 51v-1 1zM34 54v-1 1c0 1 0 0 0 0zM33 60l1 1v-1-1h-1l1-1h-1c0 1 0 1 0 0v2zM60 33h1-1l-1 1v-1 1h2-1v-1zM34 62v1l1-1h-1zM34 64h1v-1l-1 1zM35 56zM34 62v0zM34 62v-2-1 3zM36 56h-1s0-1 0 0h1zM41 41l-1 1v-1h1-1v1h-1v-1 1h1l-1 1 1-1h1v-1zM39 50v0zM48 32zM50 34h-1 1zM48 32v-1h-1l1 1zM44 30c1 0 0 0 0 0 1 0 0 0 0 0zM44 31zM51 35v-1h1l-1 1zM41 41v0zM58 34l-1-1v1h1zM53 34l-1 1h-1 2v-1z"/><path fill="none" d="M52 34v1h-1 1v-1zM58 33c2 0 0 0 0 0zM37 25v0zM38 26v-1 1zM36 21l1 1v-1h-1zM38 25v0zM37 19h1v-1l-1 1zM44 31v-1 1zM37 6h0zM43 32v-1 1zM58 34h0zM42 31h-1 1zM37 27v-1 1zM40 30h1-1zM59 33v-1h-1l1 1zM47 39h-1-1v1c1 0 0 0 0 0h2v-1 1h-1v-1c0 1 0 0 0 0h1zM51 38l1 1s0-1 0 0v-1h-1zM49 37h-1 1v-1 1zM48 39s-1 0 0 0h-1 1zM50 39v-1 1h1-1 1v-1h-1v1zM57 36h-1 2a22 22 0 01-1 0c1 0 0 0 0 0zM52 38l1-1h-1v1zM53 35h-1 1z"/><path fill="none" d="M56 37c1 0 0 0 0 0h2l-1-1c-2 0-1 1-1 1zM61 36v-1 1zM57 36c1 0 1 0 0 0zM61 36h0zM43 41h-1 1v-1 1zM41 39h-1 1v-1 1zM62 35h-1 1z"/><path fill="#78561B" d="M61 34zM37 1h1l-1 1 1-1v1c-1 0 0 0 0 0v2c-1 0 0 0 0 0-1 0 0 0 0 0v5h-1v1h1v2s1-1 0 0v1h-1 1v5s1 1 0 0v1l1 1v1l-1-1v1c1 0 0 0 0 0h1v1l-1 1h1v4h1v1h1v1s0-1 0 0h-1v-1h-1l1 1h1l1-1v1l1-1v1h1l1-1v2l1-1 1 1v-1 1h1v-1l1 1h2-1 1v0h1v1h2v-1 1h1v1h1s0-1 0 0h5v1a27 27 0 01-1 0h1v1h-1v-1h1-1-1v1h1-1 2c1 0 0 0 0 0h1s1 0 0 0c1 0 0 0 0 0v1h1l-1 1h-1v1h1-1c-1 0-1 0 0 0h-1-2l1 1h-1-2l-1 1h-2-1l-1 1h-1s0 1 0 0v0s-1 0 0 0h-2l-1 1h-1v1l-1-1v1h-1-1v0h-1v1h-1v1h1-1 0v3h-1l1 1h-1c0 1 0 0 0 0v4l-1 2v-1 3h-1v3l-1 3v1h-1l-1 1h-1l-1-1v-2c0 1 0 1 0 0v-2 1l1 1v-1s0-2-1-1v-1c0 1 0 1 0 0l1-4v-1-1-1 1c0-1 0-1 0 0v-1 1s0-2 0 0v-1 1c0 1 0 1 0 0v2l1 1v-1l-1-1v-1h1s0 1 0 0l-1-1v-1 1h1-1v-1l1 1v0l-1-1 1 1c0 1 0 0 0 0v-1c-1-1 0 0 0 0h1v-1h-1v-1l1 1v-1 0-1h-1v-1h1v-1s1 0 0 0v-1-1l1 1v-1-2c1 0 0 0 0 0 0 1 0 0 0 0v-1h2l1-1 1-1h2v-1 1h1v-1 0l1 1v-1 1h1l-1-1c0-1 0 0 0 0h1v-1h1v0h3-1l1-1c1 0 0 0 0 0h1c1 0 1 0 0 0h-1c1 0 0 0 0 0h2-2 1-1 1-1v-1h0c1 0 1 0 0 0v1s0-1 0 0v-1 1h-1l-1-1h-1l-2-1h-1-1-1l-2-1h-1a10 10 0 01-1-1h-1l-1-1-1-1v-1-2-1-1l-1-1v-1-2-2-1-1h1l-1-2v-1s1 0 0 0v-2-1-1-1-5-1-1h3zm-2 50v-1 1zm0 5h1-1zm0 6v0zm-1 0v-2-1 3zm0 1v-1 1zm0 0l1-1h-1v1zm1 0l-1 1h1v-1zm1-2v0zm0-3v-1 0s0-1 0 0v1h-1v1l1-1v1l-1 1h1v0c0 1 0 0 0 0v-1-1zm1 1h-1v-1 2s0-1 0 0v1l1-1v-1zm0-1v0c0-1 0 0 0 0zm0-2v1l1 1a46 46 0 00-1-2zm0-3s1 0 0 0v-1l-1 1v1c0-1 0 0 0 0v-1 4c0-1 0 0 0 0v-1 0l1 1v-1-3 0zm2-3v1l-1 1v1s0 1 0 0v1s0 1 0 0l1-1v-3 0zm-2-1v1h1l-1-1zm1-2v1s-1 0 0 0v1h-1 2v-1h-1c1 0 1 0 0 0v-1zm1 0v-1-1-1 1h-1l1 1h-1 1l-1 1v-1h1-1l1 1zm2-2h-1v1h-1l1 1v-1-1l1 1v-1zm0-1h-1v1l1-1zm0-3l-1 1v-1h1-1v1h-1v-1 1h1l-1 1 1-1h1v-1zm0 0v0zm0-2v-1 1h-1 1zm2 1v1h-1 1v-1zm4-1h-1-1v1c1 0 0 0 0 0h2v-1 1h-1v-1c0 1 0 0 0 0h1zm1 0s-1 0 0 0h-1 1zm1-3v1h-1 1v-1zm2 2h-1v1h1-1 1v-1zm1 0h-1l1 1s0-1 0 0v-1zm1-1h-1v1l1-1zm5 0l-1-1c-2 0-1 1-1 1 1 0 0 0 0 0h2zm-5-2h-1 1zm4 1h-1 2a22 22 0 01-1 0c1 0 0 0 0 0zm0 0c-1 0 0 0 0 0 1 0 1 0 0 0zm5 0h-1 1zm0-1h-1v0h1zm-4-1h0zm-5 0l-1 1h-1 2v-1zm4 0h1l-1-1v1zm-5 0v1h-1 1v-1zm6-1c2 0 0 0 0 0zm0-1l1 1v-1h-1zm-7 3v-1h1l-1 1zm-2-1h1s-1 0 0 0h-1zm-1-2zm-1-1l1 1v-1h-1zm-3-1c1 0 0 0 0 0 1 0 0 0 0 0zm0 1v-1 1zm-1 1zm-2-1h1-1zm-1-1h1-1zm-3-4v0zm0 0v-1 1zm1 0v-1 1zm0-1v1-1zm-1-4h-1l1 1v-1zm1-3l-1 1h1v-1zM37 6h0zM38 18zM45 29zM45 29zM35 51zM48 39zM39 50zM44 31zM36 60zM61 35zM35 56zM35 63zM43 43z"/><path fill="#78561B" d="M41 43v1h1l-1-1zM33 63v-1-1 2z"/><path fill="#78561B" d="M42 44l-1-1c1 1 0 0 0 0l1 1v-1 1zM35 53v-1l-1-1a235 235 0 011 2zM43 43zM42 43s-1 0 0 0h0zM35 48v0zM46 42l-1-1v1h1zM61 37s-1 0 0 0h0zM36 47h-1v1h1v-1s-1 1 0 0zM36 47zM48 41h1v-1l-1 1zM38 6V5v1zM47 29h0zM61 33h1v-1l-1 1zM41 28v-1 1zM38 19l1 1v-1h-1zM58 38v0h0zM35 51h-1v-1l1 1zM35 51zM35 51zM48 41zM48 41zM48 41zM48 41zM45 29zM45 29zM50 30l-1-1 1 1zM38 53h-1c0-1 0-1 0 0h1zM36 54h0z"/></g></svg>