<?xml-stylesheet type="text/css" href="../style.css"?>
<svg version="1.2" baseProfile="tiny" xmlns="http://www.w3.org/2000/svg" width="283" height="100" id="info-cloud" overflow="visible">
<path fill="none" d="M5 72v1c0-1 0 0 0 0v-1zM5 72v0zM6 72v1-1zM5 72zM5 72v0z"/>
<path fill="#78561B" d="M5 72zM6 73H5v0s0-1 0 0v-1-1 1c0-1 0 0 0 0v-1h1l-1 1 1-1v1-1 2s0-1 0 0v-1 1zm-1 0v-1 1zm0-1v1c0-1 0 0 0 0v-1zm0 1v-1 1zM5 73zM5 73v0zM5 74zM5 74zM5 73z"/><g><path fill="#78561B" d="M6 72z"/><path fill="none" d="M7 73v-1 1zm0 0zm0 0zM6 73zM7 73H6h1zM7 73v0s0 1 0 0zM7 73v-1l-1 1c0-1 0 0 0 0 0-1 0 0 0 0h1zM7 73v0c0 1 0 0 0 0zM7 73v0s0 1 0 0zM8 73zM8 74v-1 1zM8 74c0-1 0 0 0 0zM6 73v0zM8 73H7h1v0H7h1zM7 73zM8 73zM6 73zM13 73s0 1 0 0v0s0 1 0 0zM6 73v1s0-1 0 0v-1zM7 72v-1 1zM6 72zM6 73v-1c0 1 0 0 0 0v1zM11 74v-1 1zM6 73zM6 73zM6 72zM6 73zM6 73v-1 1zM7 72H6h1zM8 73v-1 1zM7 73v0zM12 72v0zM12 72zM12 73zM13 73zM13 73zM12 72c-1 0 0 0 0 0-1 0 0 0 0 0zM8 73zM11 73zM11 72zM11 72zM11 74v-1 1zM14 73zM14 73c0 1 0 0 0 0zM14 73zM14 73zM15 73h-1l1 1v-1zM13 73zM16 73v0zM13 72zM11 73zM13 72s0 1 0 0zM14 73zM13 73zM11 74zM9 73zM10 73zM9 72h0zM9 73zM9 73h0zM10 73zM10 73zM10 72c1 0 0 0 0 0zM10 73zM11 73zM10 73h0zM11 73v1-1zM9 73zM9 72zM11 73z"/><path fill="#78561B" d="M16 73v1-1 1c0-1 0 0 0 0 0-1 0 0 0 0v-1c-1 0 0 0 0 0l-1 1v-1 1s0-1 0 0c0 0 0-1 0 0h-1v-1 1s0-1 0 0h-1v-1s0 1 0 0c0 0 0 1 0 0v1-1 1h-1-1v-1 0s0 1 0 0v1-1 1h-1s0-1 0 0H9 8h0c0-1 0 0 0 0 0-1 0 0 0 0-1 0 0 0 0 0-1 0 0 0 0 0H7 6c0-1 0 0 0 0 0-1 0 0 0 0v-1-1c0 1 0 0 0 0v-1 0s0 1 0 0v0h1c0 1 0 0 0 0v1s0-1 0 0v-1c0 1 0 0 0 0s0 1 0 0v1h1v-1 1-1 1h1v-1 1s0-1 0 0v-1 1-1 1-1 1h1v-1 0c0 1 0 0 0 0v1l1-1v1s0-1 0 0v-1 1c0-1 0 0 0 0s0-1 0 0c0-1 0 0 0 0h1c0-1 0 0 0 0 0-1 0-1 0 0 0 0 0-1 0 0 0-1 0 0 0 0h1c0-1 0 0 0 0h3v1zm-9-1v-1 1zm-1 0h0zm0 1zm0 0v-1 1zm0 0zm0 0zm0 0v1s0-1 0 0v-1zm0 0v0zm1 0v-1l-1 1c0-1 0 0 0 0 0-1 0 0 0 0h1zm0 0H6s1 0 0 0h1zm0 0v0c0 1 0 0 0 0zm0 0s0 1 0 0v0zm0 0v-1 1-1 1zm0 1v-1s0 1 0 0v1zm0-1zm1 0H7c1 0 0 0 0 0h1v0zm0 0zm0 1v-1 1zm0 0c0-1 0 0 0 0zm0-1v-1 1zm0 0zm1-1zm0 1zm0 0zm0 0zm1-1H9h1zm0 1H9h1zm0 0zm0 0zm0 0zm0-1c1 0 0 0 0 0zm0 1zm1 0h-1 1zm0 1v-1 1zm0-1zm0 0zm0-1zm0 1zm0-1zm0 2v-1 1zm0 0zm1-2c-1 0 0 0 0 0-1 0 0 0 0 0zm0 0zm0 0v0zm0 1zm1 0zm0 0zm0-1zm0 0s0 1 0 0zm0 1zm1 0zm0 0zm0 0zm0 0v0zm0 0zm1 0h-1l1 1v-1zm1 0v0zM15 74zM13 74zM13 74zM6 71zM9 73zM7 73zM13 73zM11 73zM6 72zM6 73zM8 74zM8 74zM6 73s-1 0 0 0H5h1zM8 74zM6 71zM8 74zM8 74zM8 71v0zM9 74zM10 74zM8 72v-1 1zM8 72zM9 74zM16 74zM12 74zM11 74zM13 74zM14 74zM10 74zM6 71zM6 71zM6 71zM9 74zM9 74zM9 74zM9 74zM13 74zM13 74zM12 74zM7 73zM7 73z"/></g><g><path fill="none" d="M17 73h-1l1 1v-1zM17 73zM17 73zM17 74c0-1 0 0 0 0zM17 73v0z"/><path fill="#78561B" d="M18 73h-1c1 0 0 0 0 0v1c0-1 0-1 0 0l-1-1 1 1v-1l-1-1h1v1h1zm-1 0zm0 1c0-1 0 0 0 0zm0-1v0zm0 0zM18 72z"/></g><g><path fill="#A6BFEB" d="M257 75l19 1c3 0 4-5 1-6-6-2-13-3-16-5 0-13-11-24-23-25-12 0-23 8-26 19h-1c0-8-5-16-13-19s-18-1-24 5h-1c3-9 0-19-6-26-6-8-15-12-24-14-11-1-22 0-30 6-8 7-13 18-10 27v1c-10-7-23-11-34-7-11 5-18 20-12 30v1a181 181 0 00-24 3l-7 1-2 1-1 2c-1 1 0 2 1 2l4 1h51l84 2 83 1h10"/><path fill="none" d="M259 76h1v-1l-1 1zM259 76h-1 1zM262 75v0zM258 74zM262 76c0-1 0 0 0 0 0-1 0 0 0 0z"/><path fill="#78561B" d="M258 74zM262 76v0l-1 1v-1 1h-1-1-1v-1h-1v-1-1h5v2zm-3 0h-1 1zm1-1l-1 1h1v-1zm2 1c0-1 0 0 0 0 0-1 0 0 0 0zM262 77s0-1 0 0zM262 77h-1 1zM261 77zM261 77zM261 77z"/><g><path fill="#78561B" d="M262 74h1-1z"/><path fill="none" d="M272 76h-1s-1 0 0 0h-2 1-1v-1h1v0h2v1h0zm-1 0v-1 1zm1 0c1 0 0 0 0 0s0-1 0 0zM268 76v0s-1 0 0 0zM269 76v0zM270 77h0zM269 76h-1 1v-1h-1v1l-1-1v1h-1 1s-1 0 0 0c-1 0-1 0 0 0v0h2zM270 76v1h-1 1v-1zM273 77l-1-1v1h1zM277 76h1v-1l-1 1h-1v-1 1h1zM278 77l-1-1v0l-1 1h2s0-1 0 0zM279 75v1h-1v0h1v-1zM268 77h1-1zM275 76h-1 1v1h-1 1s1 0 0 0c1 0 0 0 0 0s1 0 0 0v-1h0zM274 76s0-1 0 0zM275 76h1v-1l-1 1zM266 76h-1 1zM260 55h-1v-1 1l1 1v-1zM266 77h1-1-1 1zM272 74zM263 74zM263 76h1v-1h-1c0 1 0 0 0 0v1zM264 65c0 1 0 0 0 0v1h1v-1h-1l1 1h-1v-1s1 0 0 0zM265 76h-1 1zM265 77c0-1 0-1 0 0zM268 75zM264 76h1-1zM265 75h-1 1zM269 75h-1 1zM279 73v1h-1 1v-1zM274 77h-1 1zM260 61zM259 63s0-1 0 0v-1 1zM260 61h1l-1-1v1zM260 58zM260 58zM261 67v-1 1zM279 73v-1 1zM263 66h1l-1-1v1zM262 67h1v0h-1zM262 67zM263 65h-1 1c0-1 0 0 0 0zM257 52v0zM258 52v-1h-1l1 1zM255 50zM257 52h1-1zM255 48h-1 1zM260 58zM248 43v-1h-1l1 1zM259 58h-1 1zM264 66v1l1-1h-1zM258 57h1-1zM257 53zM258 56h1l-1-1v1zM263 65v-1 1zM276 70h0v-1 1c0-1 0 0 0 0zM273 69v-1h-1l1 1zM274 71v-1h-1l1 1zM275 69v1h1l-1-1zM274 69h-1 1v-1l-1 1h1zM268 68h1v-1h-1l1 1h-1zM272 69v-1h-1l1 1zM268 69c-1 0 0 0 0 0zM270 68l-1-1v1h1zM267 67v-1 1zM268 68h-1 1zM267 66v0zM279 71v0h-1 1zM277 73v-1 1zM266 66l1 1-1-1z"/><path fill="#78561B" d="M260 56zM245 41v-1c0 1 0 0 0 0l1 1c0 1 0 0 0 0l1 1h2v1h1v1h2v2-1l1 1 1 1h1v1c0-1 0 0 0 0l1 1 1 1c-1 0 0 0 0 0v1h1v2c1 0 0 0 0 0h1l1 1v1h-1v-1 1l1 1 1 1v2l1 1-1-1h1v1-1l-1 1h1v2s0 1 0 0v1h1v1h-1s1 0 0 0h1c0-1 0 0 0 0s1 0 0 0h1v1-1 1c0 1 0 0 0 0v1l1-1h-1l1 1h-1v-1s1 0 0 0h2v0h1v0l1 1h2v1h2l1 1h1v-1l1 1c-1 0-1 0 0 0h1v1h2l1 1 1 1v-1 1c-1 0 0 0 0 0v4s0-1 0 0v1s-1 0 0 0l-1 1h-1l-1 1-1-1v1-1c-1 1 0 0 0 0h-1v0l-1 1-1-1v0s-1 0 0 0h-1v1-1h-2-1-1-1-2-1l-1-1c0 1 0 0 0 0h1c0-1 0 0 0 0v-1h-1v-1h1v-1 1h1v-1 1h2v-1s0 1 0 0v0h1v1l1-1 1 1h1c0-1 0 0 0 0h1s0-1 0 0l1-1v1h3s0-1 0 0h1v-1-1c-1 0 0 0 0 0h-1v-1s-1 1 0 0v1h-1s0-1 0 0h-1v-1c0 1 0 0 0 0h1-2-1-1l-1-1h-2l-1-1h-1-1l-1-1c0 1 0 0 0 0h-1-1v-1h-1s1 0 0 0h-1v-1h-1v-1 1h1l-1-1v-1-1-1s-1 0 0 0v-1h-1v-1-1-1l-1-1v-1l-1-1v-1l-1-1v-1h-1v-1l-1-1-1-1v-1l-1-1h-1l-1-1h-1l-1-1-2-1c1 0 0 0 0 0l-1-1v0l1-2zm27 33zm-4 1h1-1zm-3 1h0zm0-1h-1 1zm0 1h-1 1zm0 0h-1 1zm2 1h-1 1-1-1c0-1 0-1 0 0h2zm2 0h-1 1zm0-1h-1 1v-1h-1v1l-1-1v1h-1 1s-1 0 0 0c-1 0-1 0 0 0v0h1s-1 0 0 0v0h1zm0 1v-1 1zm1-1v1h-1 1v-1zm1 1h-1 1zm1-1h0v-1h-1-1v1-1h-1v1s1 0 0 0h1-1 2c-1 0 0 0 0 0h1zm2 1h-1-1v-1 1h2zm0-1v-1 1zm2-1l-1 1h-1 1v1h-1 1s1 0 0 0c1 0 0 0 0 0s1 0 0 0v-1h0l1-1zm0 1h2v-1l-1 1h-1v-1 1zm2 1s0-1 0 0l-1-1v0l-1 1h2zm1-2v1h-1v0h1v-1zm0-2v1h-1 1v-1zm0-1v0zm-2 0v0zm1-1h1v0h-1zm-2-1h0v-1 1c0-1 0 0 0 0zm-1-1v1h1l-1-1zm-2 1l1 1v-1h-1zm0-1h1v-1l-1 1zm-1-1l1 1v-1h-1zm-1 0l1 1v-1h-1zm-2-1v1h1l-1-1zm-1 2c-1 0 0 0 0 0zm0-1h1v-1h-1l1 1h-1zm-1 0h0zm0-2v0zm-1 0l1 1v-1 1l-1-1zm-2 0v1l1-1h-1zm-1 1h-1 1v0zm0-1h1l-1-1v1zm-1 1zm1-2h-1 1c0-1 0 0 0 0zm0-1v0zm-2 3v-1 1zm-2-5v1s0-1 0 0v-1zm1-1zm0-1v1h1l-1-1zm0-2zm0 0zm-2 0h0zm0-1s1 0 0 0zm0-1h1l-1-1v1zm-1-3zm0 0v-1 1zm0-1h1-1zm0-1l1 1v-1h-1zm-2-1zm-1-2h0zm-7-6l1 1v-1h-1zM255 48v-1 1zM261 58zM261 58zM266 74zM275 69zM274 77zM260 58zM267 67zM268 75zM265 77zM280 71zM280 74h1l-1 1v-1 1l1-1v-1l-1 1zM263 77v-1 1zM281 73s-1 0 0 0v-1 1z"/><path fill="#78561B" d="M266 74l-1-1v1h1zM280 71zM280 71l1 1s-1 0 0 0l-1-1zM275 74h-1 1zM278 69h-1 1zM269 66h0zM275 74zM275 74zM276 68h-1 1zM248 42v-1l-1 1h1zM262 60zM264 64s-1 0 0 0zM260 55zM255 48h0zM271 67v-1c0 1 0 1 0 0v1zM266 74v-1 1zM266 74zM276 68zM276 68zM276 68zM276 68zM261 58zM261 58v0zM262 62v-1 1zM272 76c1 0 0 0 0 0s0-1 0 0zM271 76v-1 1z"/></g><g><path fill="#78561B" d="M244 43z"/><path fill="none" d="M235 40h1v-1l1 1h1l-1 1v-1s-1 0 0 0v1h-1v-1h-1v0h-1 1zm1 0zm-1 0h-1 1zM239 40v-1 1s1 0 0 0zM238 39v0s0 1 0 0zM236 39zM238 40v1l1-1 1 1v-1h0s1 0 0 0h1-2-1zM237 39h0z"/><path fill="none" d="M234 39l1 1v-1h-1-1 1zM230 41h-1 2v-1l-1 1zM229 40h0v-1h0v1zM228 40h0v0zM239 39h-1 1zM232 40l1 1v-1h-1s0-1 0 0h-1v-1 1h1-1 1c-1 0 0 0 0 0zM233 41v-1 1z"/><path fill="none" d="M232 41v-1 1h-1 1zM241 40v1h1l-1-1zM211 53v-1h-1l1 1s0 1 0 0zM241 40v-1l1 1s-1 0 0 0l-1-1h-1l1 1zM235 42zM244 43zM244 41h-1v1h1v-1zM213 53h1s-1 0 0 0h-1zM242 41zM242 40zM239 41zM242 41h1v-1h-1 1l-1 1zM242 41l1 1-1-1zM238 41h0zM227 42h-1 2v-1l-1 1c-1 0 0 0 0 0zM233 39zM211 60zM212 61c0-1 0 0 0 0 0-1 0 0 0 0zM211 59v-1 1zM211 56v-1 1zM211 57zM214 59v-1 1zM227 42h-1 1zM214 54c-1 0 0 0 0 0zM215 56v-1c0 1 0 0 0 0h0v1zM215 56l-1 1 1-1s0 1 0 0zM213 54c0-1 0 0 0 0zM208 50v0zM210 50l-1-1v1h1zM207 48v-1 1zM209 50zM206 46h1v-1l-1 1s1 0 0 0zM211 56zM200 40h-1 1zM210 58v-1s0 1 0 0v1zM214 53h0v0zM210 56v-1 1zM209 51zM210 54v-1 1zM213 54v-1 1zM223 44l-1 1 1-1c1 0 1 0 0 0h1-2 1zM220 46h-1v1l1-1zM222 46v0zM222 45s0-1 0 0v-1 1zM221 45l-1 1v-1 1h1v-1zM217 50v-1 1zM219 47zM218 51zM218 48l-1 1c0-1 0 0 0 0l1-1zM215 51zM217 50v0zM215 50v0zM225 43c0-1 0 0 0 0zM227 44h-1 1zM215 52v-1 1z"/><path fill="#78561B" d="M211 53zM196 39l1-1v0c0 1 0 0 0 0h1v1h2v1h2v1c0 1 0 0 0 0h1v1c0-1 0 0 0 0h1v1h1v1h1v1h1c-1 0-1 0 0 0v1h1v1h-1 1l1 1v1l1 1v1h1v1c0 1 0 0 0 0v1h1-1v-1h-1l1 1s0 1 0 0c0 1 0 0 0 0v1h1s0-1 0 0v1l-1 1 1-1c0-1 0 0 0 0v-1c0 1 0 0 0 0v1c0 1 0-1 0 0v1c0-1 0 0 0 0v-1-1 1s0-1 0 0v-1-1 1h1v0-1h0l1 1v-1h-1 1-1v-1h1v-1l1-1h-1 1v-1h1v-1h1v-1h1v-1l1-1h1v-1 1l1-1 1-1h1v-1 1l1-1h1v-1 0h2v-1l1 1-1-1h1-1 1v-1h4-1 2s0-1 0 0l1-1v1h1v-1h2l1 1h4l1 1h1v1h1l-1 1-1-1v1h1v1h-1-2s1 0 0 0v-1 0h-1 0c0 1 0 0 0 0v1l-1-1v0h-1-2c0 1 0 0 0 0h-1s0 1 0 0h-1c-1 0-1 0 0 0h-1-1 1-1v1h-1v-1 1h-1l-1 1v-1h1-1a12 12 0 00-1 0l1 1h-1v-1 1h-1v1h-1-1-1v1c0-1 0-1 0 0l-1 1v-1 1h-1v1h-1c1 0 0 0 0 0s0 1 0 0v1h-1v1l-1 1-1 1-1 1h-1v1c1 0 0 0 0 0v1l-1 2s0 1 0 0l-1 1s1 0 0 0v2h-1v1-1-1 2c0-1 0 0 0 0 0-1 0 0 0 0h-1s0 1 0 0v1l-1-1h-1v-1-1l-1-1v-3l-1-1v-1-1l-1-1v-1l-1-1-1-1-1-1v-1l-1-1h-1v-1h-1c0-1 0-1 0 0v-1h-1-1l-1-1-1-1h-1v-2zm39 3zm4-1h-1 1zm3 0v-1h-1v1h1zm0 0l1 1-1-1zm0 0h1v-1h-1 1l-1 1zm0 0zm-2-2l1 1v-1l1 1s-1 0 0 0l-1-1h-1zm-2 0h1-1zm0 1v1l1-1 1 1v-1h0s1 0 0 0h1-2 0c1 0 1 0 0 0v-1 1h-1zm0-1v0s0 1 0 0zm-1 0h0zm-1 0zm-1 1h-1 1v1l1-1v1h1v-1c-1 0 0 0 0 0v1l1-1v1-1h-1l-1-1v1h-1zm-2-1h1l1 1v-1h-1-1zm0 2v-1 1zm-2 0h1v-1c-1 0 0 0 0 0l1 1v-1h-1l-1-1v1h1-1 1v1h-1zm0-1l-1 1h-1 2v-1zm-2 0h0l1-1h-1v1zm-1 0v0h0zm-1 2h-1 2v-1l-1 1c-1 0 0 0 0 0zm-1 0h1-1zm0 2h0zm-1-1c0-1 0 0 0 0zm-2 1l-1 1 1-1h1c-1 0 0 0 0 0h-2 1zm-1 1s0-1 0 0v-1 1c0-1 0-1 0 0zm0 2v-1 1zm-2-1h1v-1l-1 1v-1 1zm-1 1l1-1h-1v1zm0 0zm-2 2l1-1-1 1c0-1 0 0 0 0zm1 2zm-1-1v-1 1zm0 1v-1 1zm-2 0v-1 1zm0 0v0zm-1 3v-1h0v1zm1 1v0c0 1 0 0 0 0h1-1zm-1-1h-1 1zm1 2l-1 1 1-1s0 1 0 0zm-2-2c0-1 0 0 0 0zm0 0v-1 1zm1 5v-1 1zm-2 2c0-1 0 0 0 0 0-1 0 0 0 0zm-1-1zm0-2v0zm0-2v-1 1zm0 0v0zm-1 1v1-1s0 1 0 0zm0-1v-1 1zm0-2v-1 1zm-1-3zm-1 0v-1 1zm1-1zm0-1v1h1l-1-1zm-2-2v0zm-1-1s1 0 0 0h1v-1l-1 1zm-7-6h0zM207 45zM212 54zM212 54zM240 43zM222 45c0-1 0-1 0 0zM233 39zM211 57v-1 1zM215 51zM239 41zM242 40zM225 41z"/><path fill="#78561B" d="M227 40h-1v1l1-1zM244 40v1h1l-1-1zM226 41v-1c0 1 0 1 0 0v1-1 1zM241 42h-1l1 1v-1zM225 41zM225 41h1c-1 0 0 0 0 0h-1zM233 43s0-1 0 0v-1 1zM223 42v1-1zM216 48zM232 42v0zM232 42zM221 44c0-1 0-1 0 0zM200 40v-1h-1l1 1zM212 54v-1 1zM213 53h-1 1zM212 53zM207 46h0zM217 47v-1 1zM240 43zM240 43zM221 44zM221 44v-1 1c0-1 0-1 0 0zM221 44zM221 44zM212 54zM212 55v-1 1zM212 54zM234 40h0zM236 40z"/></g><g><path fill="#78561B" d="M196 41z"/><path fill="none" d="M187 38h3v0l-1 1v-1l-1 1h-1l-1-1h1zm0 0l1 1v-1h-1zm0 0h-1 1c0 1 0 1 0 0zM191 38v-1 1zM190 37v0zM188 37c0 1 0 0 0 0zM190 38s0 1 0 0v1l1-1 1 1v-1s1 0 0 0v-1 1h-1-1zM189 38v-1c0 1 0 0 0 0h-1l1 1zM186 38v-1 1h1c-1 0 0 0 0 0v-1h-1l-1 1h1zM182 39h-1v1h1v-1 0h0l1 1-1-1zM181 39h1v-1 0h-1 1-1v1zM180 39h0v-1 1zM191 37h-1 1zM184 39h1-1v-1h-1v1h1zM185 39zM184 39h-1 0v1-1h1zM193 38h1-1zM170 22v-1h-1l1 1h0zM193 37h-1 1l1 1h-1v-1h-1 1zM187 40zM196 40v1-1s0 1 0 0zM196 39h-1 1v1c0-1 0-1 0 0v-1zM175 34c-1 0-1 0 0 0h-1 1l-1 1h1v-1 0zM194 39v-1 1zM194 38zM191 39zM194 38h1-1c1 0 0 0 0 0zM194 39h0zM190 39h0zM179 41h0l1-1-1 1c-1 0 0 0 0 0zM185 38v-1c0 1 0 0 0 0v1zM171 28h0zM171 29v0zM172 27v0zM171 25h1l-1-1v1zM171 25zM172 32c0 1 0 1 0 0 0 0 0 1 0 0zM179 41h-1 1zM174 34v-1 1zM172 33v1h1l-1-1zM172 33v0zM175 32h-1v1l1-1zM167 19v0zM168 19v-1 1zM165 17s1 0 0 0zM168 19zM165 16v0zM171 25c0-1 0 0 0 0zM158 10h-1 1zM170 25h-1 1zM174 35v-1 1zM169 24h0zM168 20h-1 1zM169 23h1l-1-1v1zM175 32v0zM175 43v1-1h1v-1 1s0-1 0 0c0 0-1 0 0 0h-1v0zM174 43l1-1s-1 1 0 0h-1v1s0-1 0 0zM173 46zM175 43v1h-1 1v-1zM174 44v-1l-1 2 1-1zM174 39v0zM174 43v-1 1zM173 39c-1 0 0 0 0 0zM174 41v-1s0 1 0 0h1-1v1zM175 37c-1 0 0 0 0 0zM174 38v0c-1 0 0 0 0 0zM175 38v-1 1c0-1 0 0 0 0zM177 42l1-1-1 1zM179 43zM175 36l-1 1h1v-1z"/><path fill="#78561B" d="M155 8h1v1h2v1h2v1c0 1 0 0 0 0h1v1h1v1h1v1h1v1h1l1 1s0 1 0 0l1 1 1 1v1h1v1h1v1c1 0 0 0 0 0l1 1h-1v-1h-1l1 1h1c0 1 0 0 0 0v1h1v1s1 0 0 0v1h1v2h0v1h1v2h0v1s1 0 0 0h1v2h1v1h-1c0-1 0-1 0 0h-1 1l-1 1h1v-1 1s-1 0 0 0v-1l1 1c-1 0 0 0 0 0l-1 1c1 0 0 0 0 0h1v1h-1 1v1h-1 0v1h1v1c-1 0-1 0 0 0h-1 1s-1 0 0 0h-1v1c1-1 0 0 0 0v1l1-1h-1 1l-1 1c0-1 0 0 0 0h1v-1c0 1 0 0 0 0l1-1v0h2v-1c1 0 0 0 0 0 1 0 1 0 0 0v-1l1 1v-1h1l1-1v1l1-1s0 1 0 0c0 0 0 1 0 0v0h11l1 1h1v1c0-1 0-1 0 0h-1 1v1c0-1 0-1 0 0v1h-1-2v-1h-1 0c0 1 0 0 0 0v1l-1-1s1 0 0 0h-1-1c-1 0 0 0 0 0h-1c0 1 0 0 0 0h-1s0 1 0 0l-1 1v-1c-1 0-1 0 0 0h-1v0h-1 1l-1 1h-1-1v1h-1 1v-1l-1 1v-1l-1 1h1-1 0l-1 1-1 1h-1 0l-1 1c-1 1 0 0 0 0h-1v1h-1 1-1v1h-1l1-1h-1c0 1 0 0 0 0v1l-1-1h-1v-1l1-2v-1-2-1-1-1-1-1-1-1c-1 0 0 0 0 0v-1h-1 0v-1h1v0h-1c1 0 1 0 0 0v-1-2h-1l-1-1v-1-1l-1-1v-1h-1c1 0 0 0 0 0v-1-1l-1-1h-1 1-1v-1h-1l-1-1v-1l-1-1-1-1h-1l-1-1v-1h-1-1l-2-2c1 0 0 0 0 0h-1l1-3zm32 32zm4-1h-1 1zm2-1s1 0 0 0zm1 1h0zm0-1h1-1c1 0 0 0 0 0zm0 0v0zm-2-1h1-1 1l1 1h-1v-1h-1zm-2 0h0zm0 1s0 1 0 0v1l1-1 1 1v-1s1 0 0 0v-1 1h-1v-1 1h-1zm0-1v0zm-1 1v-1c0 1 0 0 0 0h-1l1 1zm-1-1zm-1 1h-1l1 1h1l1-1v1l1-1v1-1h-1-2zm-2-1v1h1v-1 1h1c-1 0 0 0 0 0v-1h-1l-1 1v-1 0zm0 2zm-2 1v-1h2-1v-1h-1v1h0v1zm-1-1h-1v1h1v-1 0h0l1 1-1-1zm-1-1v1h1v-1 0h-1 1-1zm-1 1h0v-1 1zm-1 2h0l1-1-1 1c-1 0 0 0 0 0zm-1 0h1-1zm1 2zm-2-1l1-1-1 1zm-2 1v1-1h1v-1 1s0-1 0 0h-1c1-1 0 0 0 0v0zm0 0v1h-1 1v-1zm-2 3zm1-3l-1 2a20 20 0 001-1v-1zm0 0s0-1 0 0l1-1s-1 1 0 0h-1v1zm0-1v0zm1-2h-1v0s0 1 0 0h1zm-2-1c-1 0 0 0 0 0zm1 0v0zm0-1c-1 0 0 0 0 0v0zm1-1v1c0-1 0 0 0 0v-1zm0-1l-1 1h1c-1 0-1 0 0 0v-1zm-1-2v0zm-1 0l-1-1v1h1zm1-1v0zm-2 0v0zm3-1h-1v1l1-1zm0 0v0zm-3 0c0 1 0 1 0 0 0 0 0 1 0 0zm-1-3v0zm0-1h0zm1-1v0zm-1-2h1l-1-1v1zm0 0zm-2 0h0zm0-1h0zm0-1h1l-1-1v1zm-2-3h0zm0 0v-1 1zm1-1zm0-1v1-1zm-3-1s1 0 0 0zm0-2v0zm-8-5h0zM165 15zM172 25zM172 25zM192 41zM175 43zM185 38zM171 25zM175 37zM191 39zM194 38zM177 40zM179 39h-1 1zM196 38v1l1-1h-1z"/><path fill="#78561B" d="M178 39c0 1 0 1 0 0 0 0 0 1 0 0h-1l1 1v-1zM193 40h-1l1 1v-1zM177 40zM177 40s1 0 0 0h1-1zM185 41s-1 0 0 0zM176 40v0zM176 40s0-1 0 0zM184 41zM184 41zM176 41s0-1 0 0zM158 10V9h-1l1 1zM173 26h1-1zM175 33h0zM171 22v-1 1zM165 15h1s-1 0 0 0h-1zM176 40zM192 40v0zM192 41zM176 41zM176 41zM176 41zM176 41zM172 25zM172 25h0zM174 28v-1 1zM186 38h1c0 1 0 1 0 0h-1zM188 38h-1l1 1v-1z"/></g><g><path fill="#78561B" d="M154 10z"/><path fill="none" d="M146 5v1h1V5l1 1h-1s1 0 0 0h1s0 1 0 0v1h-1V6v1-1h-1-1V5h1zm0 1c1 0 0 0 0 0zm0 0l-1-1v1h1zM150 6zM149 6s-1 0 0 0h-1 1zM147 5zM149 7V6h-1v1h3-1 1V6h-1v1h-1 1V6v1l-1-1v1s0-1 0 0V6v1z"/><path fill="none" d="M148 6V5v0h-1l1 1zM145 5h1l-1-1h-1l1 1zM141 4h-1v1h-1 1a14 14 0 011 0V4zM140 4h0V3h0v1zM139 4h1l-1-1h1-1s1 0 0 0v1zM150 6l-1-1v1h1zM143 5V4h-1 1l-1 1h1zM144 6V5h-1l1 1zM142 5h0zM151 7l1 1V7h-1zM109 14h-1l1 1v-1-1 1zM151 6l1 1-1-1zM145 7v0zM154 10zM154 9l-1-1v1h1zM119 6l1 1h-1 1c0-1 0 0 0 0V6v0h-1zM153 8h-1 1zM152 7zM149 7zM153 8V7v1s0-1 0 0zM152 8l1 1-1-1zM149 7zM137 4v1h1l1-1h-1-1s0 1 0 0zM144 4c0 1 0 0 0 0zM114 11zM116 11c0 1 0 0 0 0zM114 11h-1 1zM111 12h0zM112 12zM119 10V9s0 1 0 0v1zM137 4v0zM120 7h-1v1l1-1zM120 9h0zM120 9h-1 1zM118 7h1-1zM107 17v1l1-1h-1zM107 16l-1 1h1v-1zM106 20zM107 17zM104 21zM111 13l1-1-1 1zM102 29l-1 1 1-1zM112 14zM121 7h-1 1zM111 14zM108 17zM110 15v-1 1zM118 7zM132 4v1h1l1-1v0h-1-1 1v1h-1 1l-1-1zM129 5V4v1s0-1 0 0zM131 6h-1 1zM132 4v0zM130 4v0zM125 6zM128 5zM125 7c0 1 0 0 0 0zM126 5h-1 1zM123 6zM124 6v0zM123 5s0 1 0 0h-1l1 1V5zM135 4h0c0 1 0 0 0 0zM136 6h1-1zM122 6h1-1z"/><path fill="#78561B" d="M109 13zM101 33v-1s-1 0 0 0v-1-1-1-1-1h1v-1-1h1c0-1 0 0 0 0v-1h-1 1v-2s1 0 0 0l1-1v-1-1l1 1v-1c-1 0-1 0 0 0v-1c1 0 0 0 0 0l1-1 1-1 1-1v-1l1-1v1h-1l1 1v-1-1c1 0 0 0 0 0h1v-1h1v-1h1c-1 0 0 0 0 0-1 0 0 0 0 0s0-1 0 0v-1h1c0-1 0 0 0 0V9v0h2s0-1 0 0V8v0h1-1l1-1v1c0-1 0-1 0 0h1V7h1V6v1l1-1h1-1v1h1c0-1 0 0 0 0V6v0l1-1v1h1V5h-1 3V4h2v0h4V3h1v1c0-1 0 0 0 0l1-1h1c-1 0 0 0 0 0 0 1 0 0 0 0h1-1 3s0 1 0 0l2 1V3h1s-1 0 0 0h3c0 1 0 0 0 0 1 0 0 0 0 0l1 1V3l1 1s0-1 0 0h1s1 0 0 0h2l1 1h2l1 1h1l1 1h1v1h1l-1 1-1-1v1h1v1h-1v0h-1-1s1 0 0 0c0 0 0-1 0 0V9h-1-1s1 0 0 0h-1l-1-1h-1-1c0-1 0 0 0 0h-1V7c-1 0-1 0 0 0h-1-1 1-1-2V6v1h-1V6h-1v1-1 1l-1-1c0 1 0 0 0 0l-1 1h-1V6v1-1 0l-1 1V6v0h-1s-1 0 0 0v0l-1 1h-1 1V6l-1 1h-1 0V6v1h-1-1l-1 1h-3-1v1l-1-1v1h-1l-1 1h-1-1v1-1h-1 1v1h-1-1v1h-1v1h-1l-1 1h-1s1 0 0 0l-1 1v1h-1v1h-1v1l-1 1v1h-1v2l-1 1-1 1v1c0 1 0 0 0 0v2c-1 0-1 0 0 0h-1v6h-3zm44-26v0zm4 0zm3 1V7h-1l1 1zm0 0l1 1-1-1zm1 0V7v1s0-1 0 0zm-1 0h1-1zm-1-2l1 1-1-1zm-2 0h1l-1-1v1zm0 1V6v1-1h-1v1h3-1 1V6h-1v1h-1 1V6v1l-1-1v1s0-1 0 0zm-1-1h1s-1 0 0 0h-1zm0 0V5v0h-1l1 1zm-1-1zm-1 0h-1v1h1s0 1 0 0l1 1V6v1h1V6c0 1 0 0 0 0h-1c1 0 0 0 0 0h1-1c0-1 0 0 0 0h-1V5zm-2-1c0 1 0 0 0 0l1 1h1l-1-1h-1zm-1 1l1 1V5h-1zm-1 0h0s1 0 0 0h1V4h-1 1l-1 1zm-1-1h-1v1h-1 1a14 14 0 011 0V4zm-1-1v1h0V3h0zm-1 1h1l-1-1h1-1s1 0 0 0v1zm-2 0v1h1l1-1h-1-1s0 1 0 0zm0 1V4v1zm-1 1h1-1zm-1-2c0 1 0 0 0 0h0zm-3 1V4v1h1l1-1v0h-1-1 1l-1 1c1 0 0 0 0 0zm0-1v0zm-2 2h0zm0-1V4v1zm-1 0s0-1 0 0V4v1zm-1 0zm-3 0h0zm0 2c0 1 0 0 0 0zm0-1zm-1 1V6v1zm-2-1h1V5s0 1 0 0l-1 1zm0 0h1-1zm-2 1h0zm0 2h0zm-1-1l1-1h-1v1zm1 1h-1 1zm-2-2h1-1zm0 0zm1 3V9s0 1 0 0v1zm-3 1c0 1 0 0 0 0zm-2 0zm0 0h-1 1zm-3 1h0zm0 1l1-1-1 1zm1 1zm-1 0zm-1 1v-1 1zm-2 2zm0 0h-1v1l1-1zm-1 0zm-1 0h1v-1l-1 1zm0 3zm-2 1zm-3 9l1-1-1 1zM104 21zM111 11zM111 11zM150 9zM132 4zM144 4zM112 12zM123 6zM149 7zM152 7zM136 3zM138 3h0V2l-1 1h1zM154 8h0zM137 3c0-1 0 0 0 0z"/><path fill="#78561B" d="M151 9h-1l1 1V9zM136 3zM136 3h1-1zM142 7h0zM134 3h-1 1zM125 4zM142 7zM142 7zM131 3zM101 30v-1 1zM112 10zM119 6h-1 1zM109 13h-1 1zM104 20zM127 4V3l-1 1h1zM150 9s0 1 0 0zM150 9zM131 3zM132 3h-1 1zM131 3zM131 3zM111 11zM111 11h1-1zM114 9h-1 1zM145 5v1h1l-1-1zM146 6c1 0 0 0 0 0z"/></g><g><path fill="#78561B" d="M104 33z"/><path fill="none" d="M100 36v1h1v-1 1l1 1-1-1h1v1h-1v-1h-1v-1h-1 1c0-1 0 0 0 0zm0 1h0zm0 0v-1c-1 0 0 0 0 0v1z"/><path fill="none" d="M102 37v-1h-1a37 37 0 001 1z"/><path fill="none" d="M102 37v0l-1-1v1h1zM101 36l-1-1v1h1z"/><path fill="none" d="M102 38h1v0h-1 1v-1h-1 0v-1 0s-1 0 0 0v1l1 1-1-1v1c1 0 1 0 0 0h1-1zM101 36c0 1 0 0 0 0v-1h-1l1 1zM100 35v0h-1 1zM96 34h-1c0-1 0 0 0 0h1v0zM96 33c0 1 0 0 0 0v1l1-1h-1c0-1 0 0 0 0s-1 0 0 0z"/><path fill="none" d="M94 33h2-1v-1h-1v1zM101 36a6 6 0 000-1v1c1 0 0 0 0 0zM97 35h1v-1 0s-1 0 0 0h-1 1l-1 1s0-1 0 0zM98 36v-1 1zM97 35zM102 36v-1 1zM63 35v0l1-1-1 1zM101 35s1 0 0 0v0zM100 38h-1l1 1v-1zM103 33h1-1zM102 33v1h0v-1h1-1zM75 30h0v-1 1zM102 35zM101 35zM103 39zM102 35h-1 1zM102 35h1v-1l-1 1zM103 39zM92 33h1-1 1v0h0l-1-1v1zM99 35v-1 1zM69 33zM71 34v-1 1l-1-1v1h1zM69 33l-1-1v1h1zM66 34c0-1 0 0 0 0v-1 1zM66 34zM73 33h1l-1-1c0 1 0 1 0 0v1zM92 33v-1 1zM75 31h-1 1zM75 32v1h1l-1-1zM74 32v1h1v-1h-1zM73 30h0zM61 38h1-1zM61 37l-1 1 1-1zM59 41v-1 1zM61 38zM58 41h-1l1 1v-1zM66 34zM54 49v0zM66 35zM76 31v-1l-1 1h1zM65 36v-1 1zM62 38h-1 1zM64 36v-1 1zM74 30h-1 1zM88 31v1h1c0-1 0 0 0 0v-1h-1v0zM85 31v-1h-1l1 1zM86 32h-1 1zM87 31s1 0 0 0h0zM86 31h-1v-1h1l-1 1h1zM80 31l1-1h-1v1c0-1 0 0 0 0zM84 31l-1-1v1h1zM80 32zM82 30h-1 1zM78 30zM80 31h-1 1zM79 30l-1-1v1h1c-1 0 0 0 0 0zM91 32zM91 34c0 1 0 0 0 0zM77 30h0z"/><path fill="#78561B" d="M54 53h-1c1 0 0 0 0 0v-1l1-1v-1-1-1-1h1v-1-1h0l1-1v-1l1-1v-1h1v-1s1 0 0 0v-1h1v-1h1v-1h1l1-1v-1h1v-1h1v1h-1v0h1v-1l1-1v-1l1 1v-1h2v-1c0 1 0 0 0 0 0 1 0 0 0 0h2l1-1c0 1 0 0 0 0h0l1 1v-1h1l1-1v0h1v1-1c0 1 0 1 0 0v1h0v-1h2s0 1 0 0h1c1 0 0 0 0 0h4v0h2l1 1h1v-1 0l1 1h-1 3v0h1v1h2-1 1s0 1 0 0l1 1h3l1 1h1s-1 0 0 0v0l1 1h1v1h1v-1s0 1 0 0l1-1h-1 1v1h1l-1-1h1-1 1s1 0 0 0h1v3h1v1c-1-1-1-1 0 0h-1v1h1l-1 1h0l1 1h-1v-1 1h-2c0-1 0 0 0 0 0-1 0 0 0 0h-1l-1-1-1-1-1-1v0h-1v-1 1l-1-1v1l-1-1v-1l-1 1h-1v-1 1l1-1h-1 1-2v-1l-1 1v-1h-2v-1h-1s-1 0 0 0v0c-1 0 0 0 0 0h-1v0h-1-1 0v-1 1c-1 0 0 0 0 0h-1-2l-2-1-1 1h-1-1v-1 0h-1v1c1 0 0 0 0 0h-2-1-1 1-1v1l-1-1v1h-1-1c1 0 0 0 0 0v1h-1-1v1h-1l-1 1-1 1c0-1 0-1 0 0h-1l-1 1v1h-1 1-1 1l-1 1-1 1-1 1v1h-1v2l-1 1v2l-1 2v2h0-2zm46-15h-1l1 1v-1zm3 1zm-1-3v-1 1zm0-1h1v-1l-1 1zm0 0h-1 1zm0 0zm-1 1v-1s1 0 0 0v1zm0 0a6 6 0 000-1v1c1 0 0 0 0 0zm1 2a16 16 0 001 0v0h-1 1v-1h-1 0v-1 0s-1 0 0 0v1l1 1-1-1v-1h-1l1 1v1c1 0 1 0 0 0h1-1zm-1-2v1h1v0l-1-1zm0 0c0 1 0 0 0 0v-1h-1l1 1zm-1 0h1l-1-1v1zm0 0s0-1 0 0h-1 1v1h1v1h1v-1h-1l1 1-1-1v-1 1h-1v-1zm-1-2v1h1v0h-1v-1zm-1 2v-1 1zm-1-1h1v-1 0s-1 0 0 0h-1 1l-1 1s0-1 0 0zm-1-1h-1c0-1 0 0 0 0h1v0zm0-1s-1 0 0 0c0 1 0 0 0 0v1l1-1h-1c0-1 0 0 0 0zm-2-1v1h2-1v-1h-1zm-2 1h1-1 1v0h0l-1-1v1zm0 0v-1 1zm-1 1v0zm0-2zm-3 0v-1 1h1c0-1 0 0 0 0v-1h-1v1zm-1-1s1 0 0 0h0zm-2 1h0zm0-1h0v-1h1l-1 1zm-1-1l1 1v-1h-1zm-1 1h1l-1-1v1zm-2-1h1-1zm-1 2zm0-1l1-1h-1v1c0-1 0 0 0 0zm-1 0h0zm-1-1h1c-1 0 0 0 0 0l-1-1v1zm-1 0h0zm-2 1h0zm0 1v1h1l-1-1zm-1-1h0zm0 1v1h1v-1h-1zm-1-2h0zm0 0h0zm0 3h1l-1-1c0 1 0 1 0 0v1zm-3 1h1v-1 1l-1-1v1zm-1-1zm-1 0h1l-1-1v1zm-2 1c0-1 0 0 0 0v-1 1zm0 0zm0 1zm-1 1v-1 1zm-1 0v-1 1zm-3 2h0zm1 0h-1 1zm-1 0zm-1 0l1-1-1 1zm-1 3v-1 1zm-1 1v-1h-1l1 1zm-4 8v-1 1zM57 41zM66 33zM66 33zM105 39zM87 31zM99 35zM66 34zM78 30zM103 39zM101 35zM92 31z"/><path fill="#78561B" d="M94 32v-1h-1l1 1zM101 34v-1 1zM93 31s0 1 0 0zM105 38v-1 1zM92 31zM92 31h1-1zM97 37c-1 0 0 0 0 0zM90 30h-1 1zM81 29c0-1 0 0 0 0s-1 0 0 0zM96 37v-1 1zM96 36zM87 30s0-1 0 0zM54 50h-1 1zM67 32v-1 1zM74 29zM63 34zM57 41l1-1-1 1zM83 29h-1 1zM105 39zM105 39zM87 30zM88 30h-1 1zM87 30zM87 30zM66 33zM66 33v-1 1zM69 31h-1 1zM100 36c-1 0 0 0 0 0v0zM101 37h-1 1z"/></g><g><path fill="#78561B" d="M56 53z"/><path fill="none" d="M56 62h1l-1-1v-1 0l1 1h-1 1v1s1 0 0 0c0 1 0 0 0 0h-1s1 0 0 0c0 0 1 0 0 0zm1 0v-1 1zm0 0h-1 1zM55 59h-1l1-1v1zM55 60c0-1 0 0 0 0zM55 61z"/><path fill="none" d="M56 59s0 1 0 0h-1v1h1v-1l-1-1v-1 0h-1v1h1v1h1-1 1zM55 61v-1h-1 1v1s0-1 0 0zM55 62v-1l1 1v-1h-1v1s0-1 0 0zM53 62h-1l-1 1h2v-1 1s0-1 0 0v-1zM52 62c1 0 0 0 0 0h1v-1l-1 1v-1 1zM51 62h1l-1-1v1z"/><path fill="none" d="M54 59v1h1l-1-1zM54 62l1 1v-1h-1v-1 1zM56 63l-1-1v1h1zM54 63v-1 1zM55 57v-1h-1l1 1zM22 72h1v1s0-1 0 0v-1l-1-1v1zM54 57v-1s0 1 0 0v1zM59 63h-1 1zM56 53zM55 54s-1 0 0 0l-1 1h1v-1-1 1zM31 65h1s1 0 0 0h-1zM55 55v0zM54 56zM56 59zM54 55zM55 55zM56 59zM49 63h1v1-1h-1zM55 61s-1 0 0 0h-1 1c0 1 0 0 0 0zM25 68zM27 69c0-1 0 0 0 0v-1 1zM25 68v-1 1zM23 69c0-1 0 0 0 0h-1 1zM23 69zM30 68zM49 63zM31 66h1-1zM31 67h1c0 1 0 0 0 0v0h-1zM31 67v0zM30 65h1-1zM27 72h-1 1zM26 73h0zM29 72v1l1-1h-1zM26 73zM31 73v0zM23 69zM40 74v-1 1zM24 70zM32 66h1s-1 0 0 0h-1zM24 70h-1 1zM25 72h0zM23 71zM30 65zM44 64h1l1-1v0h-1-1 1v1h-1zM41 64v-1s0 1 0 0v1zM43 65h-1 1zM44 63v0zM42 64v-1 1zM37 65zM40 64zM37 66h-1l1 1v-1zM38 65v-1s0 1 0 0v1l-1-1 1 1zM35 65zM36 65v0zM35 64h-1l1 1v-1zM47 63h0zM48 65h0zM34 65h1-1z"/><path fill="#78561B" d="M22 71zM43 74s0 1 0 0h-1-1-1-2l-1-1v1h-2v-1 1h-1-2s0-1 0 0h-1c1 0 0 0 0 0h-1v-1 1l-1-1v1h-2-1c0-1 0 0 0 0h-1-1l-1-1c-1 0 0 0 0 0l-1-1v-1 1h0l1 1s0-1 0 0v-1l-1-1c-1 0 0 0 0 0v-1l-1-1h1l-1-1h2v-1c-1 0 0 0 0 0v-1 1-1h4v-1 0h1v0h1v0h1v-1 1l1-1v1-1h1v1h-1 1v-1c0 1 0 0 0 0h2c-1 0 0 0 0 0h1s-1 0 0 0c0-1 0 0 0 0h1v-1h1c0 1 0 1 0 0l1 1v-1h4v-1 1h2v-1h1c0 1 0 0 0 0h3c0-1 0 0 0 0h-1 3v-1h4s1 0 0 0h0v-1s0 1 0 0v-1-1-1h-1v-1l1-1c-1 0 0 0 0 0v-1-1h1v2h-1 1s0-1 0 0v-1-1h1v1h1-1 1v2s-1 0 0 0h-1v0l1 1c0 1 0 0 0 0v1h1v3s1 0 0 0l1 1v2c-1 0-1 0 0 0h-1-1 1-2 0-1 1-2v1h-1v-1 1l-1-1v1h-1 1-1v-1h-1v1h1-2-1-1-1-1v1h-1v-1 1h-1-1-1s0 1 0 0l-1 1h-3-2l-1 1v-1h-1 1-1v1h-1-1-1 1-2v1-1 1l-1-1v1s0-1 0 0h-2-1v1h-1 1v1c0-1 0-1 0 0h2c1 0 0 0 0 0h16v3zm16-11h-1 1zm-3-5v0zm-1-2h-1l1 1v-1zm0-1zm-1 0zm1 1v-1 1zm-1 2v-1-1s0 1 0 0v2zm1 2l-1-1v1h1zm0-1h1s0 1 0 0l-1 1h1v-1l-1-1v-1 0h-1v1h1v1h-1l1-1v1h1-1zm0 1c0-1 0 0 0 0zm0 1v-1h-1 1v1s0-1 0 0zm0 0zm1 1c1 0 0 0 0 0 1 0 0 0 0 0h1s0 1 0 0c1 0 0 0 0 0v-1h-1 1l-1-1v1l1 1h-1zm-2-1h1c0 1 0 0 0 0v1s0-1 0 0v-1 1h1v-1h-1s-1 0 0 0h-1zm1 2h1l-1-1v1zm-1 0v-1l1 1v-1h-1v-1 2zm-1-1h-1l-1 1h2v-1 1s0-1 0 0v-1zm-1-1v1c1 0 0 0 0 0h1v-1l-1 1v-1zm-1 1h1l-1-1v1zm-2 1h1v1-1h-1zm0 0zm-1 2h0zm-1-2h0zm-3 1h1l1-1v0h-1-1 1v1h-1c1 0 0 0 0 0zm0-1v0zm-2 2h0zm0-1v-1 1zm-1 0v-1s0 1 0 0v1zm-1 0zm-3 0l1 1v-1s0 1 0 0v1l-1-1zm0 2h-1l1 1v-1zm0-1zm-1 1v-1 1zm-2-2l1 1v-1h-1zm0 1h1-1zm-2 1c0-1 0 0 0 0h1s-1 0 0 0h-1zm0 1h-1 1v0zm-1-1h1-1zm0 1v0zm-1-2h1-1zm0 0zm0 3zm-3 1c0-1 0 0 0 0v-1 1zm-2-1zm0-1c0 1 0 0 0 0zm-2 2c0-1 0 0 0 0h-1 1zm0 0zm1 1zm0 0h-1 1zm-1 1zm3 1h-1 1zm0 0h1-1zm0 1zm1 0h-1 1zm3-1h-1v1l1-1zm1 1v0zm9 1zM31 74zM22 68zM22 68zM57 57zM44 63zM55 61zM23 69zM35 65zM56 59v-1 1zM54 56zM48 61zM50 61v0h-1 1z"/><path fill="#78561B" d="M54 54v-1h-1v1h1zM49 61s0 1 0 0c0 0 0 1 0 0h-1 1zM57 56v0zM48 61zM48 62v-1s1 1 0 0v1zM55 65h1l1-1h-1l-1 1zM45 62h0zM37 63zM54 65h1v-1h-1c1 0 0 0 0 0v1zM54 64zM43 62zM40 74zM24 66h-1 1zM31 64h-1 1zM22 72h-1 1zM31 74h-1 1zM39 63h-1 1zM57 56v0zM57 57zM43 62zM44 62h-1 1zM43 62zM43 62zM22 68zM22 68v-1 1zM26 65h-1v1l1-1zM56 62h1-1zM57 61v0z"/></g><g><path fill="#78561B" d="M43 71z"/><path fill="none" d="M53 74l-1-1h-1v0s-1 0 0 0h-1 1v-1 1h1c0-1 0 0 0 0h1c0 1 0 0 0 0v1zm-1-1zm1 0zM48 74zM49 74v-1 1h1-1zM51 74v1l1-1h-1z"/><path fill="none" d="M49 73c1 0 1 0 0 0h-2 0v1h1v-1c0 1 0 0 0 0h1-1v1l1-1c0 1 0 0 0 0zM51 74h-1v0h1zM54 74h-1s0 1 0 0l1 1v-1zM58 74s0-1 0 0l1-1h-1-1 1-1v1h1zM58 74c-1 0 0 0 0 0h-1 1s0 1 0 0v0zM59 74h-1l1 1v-1zM49 74zM56 74l-1-1 1 1h-1 1v-1 1zM54 73h1s-1 0 0 0h-1zM56 73zM46 73zM91 74h0zM47 74h-1 1zM53 72v0zM43 72zM43 73h2-1 1-1l-1-1v1zM79 74v0h-1v1-1h1zM45 73h0zM46 74zM49 72zM45 73v0zM45 73v-1 1s0-1 0 0zM49 73v-1 1zM61 73h-1v1h1v-1zM54 74h1-1zM85 73h0zM84 72zM86 73h-1l1 1v-1zM88 74zM88 73zM81 72c-1 0 0 0 0 0-1 0 0 0 0 0s-1 0 0 0zM61 73l1 1v-1h-1zM79 73v0zM79 72l-1-1 1 1zM80 72h-1s1 0 0 0h1zM80 74c0 1 0 0 0 0zM95 73zM95 74zM98 73v1-1zM95 74zM99 74h1-1l1 1v-1h-1zM89 73h-1v1l1-1zM108 75h1-1zM89 72v0zM78 73c0 1 0 1 0 0 0 1 0 0 0 0zM90 72v0zM94 73zM91 73zM80 74v0zM66 73h-1c0 1 0 0 0 0h-1 1v1h1v-1c0 1 0 0 0 0l-1 1v-1h1zM69 74h1-1zM67 72h0zM66 73s0 1 0 0v0zM68 74h1l-1-1v1zM74 73c-1 0 0 0 0 0h-1v1l1-1h-1 1zM70 73zM74 72zM72 73v0l1 1v-1h-1zM75 74c1 0 1 0 0 0h0zM74 73h1-1zM75 74h1-1zM63 73h-1 1zM62 71v0zM76 74c0-1 0 0 0 0z"/><path fill="#78561B" d="M112 75h-1s0 1 0 0h-1-2-1-1v-1 1h-1-1s1 0 0 0l-1-1v1h-1-2s0-1 0 0h-1-1v-1 1s0-1 0 0h-1-1-1-2-1c-1 0 0 0 0 0h-1v-1c-1 0 0 0 0 0h1-1 0l-1 1v-1 1h-2v-1l-1 1v-1 1h-1 1-1-1l-1-1v1h-1v-1 1h-1 0v-1 1l-1-1v1s1 0 0 0h-1-1 0v-1 1h-1v-1h1v0h-1v1c0-1 0 0 0 0h-1v-1h-1v1c1 0 0 0 0 0h-1s1 0 0 0h-1c-1 0 0 0 0 0h-1-1 1l-1-1v1l-1-1-1 1h-1-2 1v-1h-1l-1 1h-1v-1 1h-1v-1 1c0-1 0-1 0 0 0 0 0-1 0 0h-2 1v-1h-1v1l-1-1h-1v0 1h-2-1-1-2-2-1-4v-1l-1 1-1-1h-2v-1h2-1 1-1v-1l-1 1v-2h3v1h1v-1h1-1 2-1 3c0 1 0 0 0 0 0 1 0 0 0 0h2s0 1 0 0h1v1s0-1 0 0h1v-1 1h1-1 1l1-1h1v0h1v1h1v-1l1 1c0-1 0 0 0 0v-1h3c0 1 0 0 0 0v0h0l1 1s0-1 0 0h1-1v-1h1v0h1v0h1v1l1-1h7l1 1v-1 1l1-1c-1 0 0 0 0 0h1s-1 0 0 0c0 1 0 0 0 0h1v0h1v0l1 1v-1 1l1-1v0h1c0 1 0 0 0 0l1 1c0-1 0-1 0 0l1-1h2l1 1v-1h3v1h20v3zm-59-3v0zm-4 0v0zm-3 1zm-1 0v-1 1s0-1 0 0zm0 0v0zm1 0h-1 1zm1 1h-1 1zm2 0zm0-1c1 0 1 0 0 0h-2 1-1v1h1v-1c0 1 0 0 0 0h1-1v1l1-1c0 1 0 0 0 0zm1 1h-1v-1 1h1zm1 0h-1v0h1zm0 0v1l1-1h-1zm2 0v-1s0 1 0 0h-1s0-1 0 0h-1v-1 1h-1 1c-1 0 0 0 0 0v0h1l1 1zm2 0h-1-1s0 1 0 0l1 1v-1h1zm0-1h-1 1s-1 0 0 0zm1 0v1l-1-1 1 1h-1 1v-1s0 1 0 0zm1 1h1s0-1 0 0l1-1h-1-1 1-1v1zm1 1v-1c-1 0 0 0 0 0h-1 1s0 1 0 0v1zm1-1h-1l1 1v-1zm2-1h-1v1h1v-1zm1 0h-1l1 1v-1zm0-1v-1 1zm1 1h-1 1zm3 0h-1c0 1 0 0 0 0h-1 1v1h1v-1c0 1 0 0 0 0l-1 1v-1h1zm0 1v-1 1zm2-2h-1 1zm1 2l-1-1v1h1zm1 0h-1 1zm0-1zm3 1v-1h-1v0l1 1zm1-2zm0 1c-1 0 0 0 0 0h-1v1l1-1h-1 1zm1 0h-1 1zm1 1h-1 1zm0 0c0-1 0 0 0 0h-1c1 0 0 0 0 0h1zm2-1c0 1 0 0 0 0 0 1 0 1 0 0zm1-1l-1-1 1 1zm0 1v0zm1-1h-1s1 0 0 0h1zm0 2c0 1 0 0 0 0zm0 0v0zm1-2c-1 0 0 0 0 0-1 0 0 0 0 0s-1 0 0 0zm3 0zm2 1h-1 1zm0 0h-1l1 1v-1zm2 1zm1-1h-1 1zm0-1v0zm1 0v0zm1 1zm3 0zm1 0zm0 1zm0 0zm3-1v1-1zm2 1h-1 1-1l1 1v-1zm9 1h-1 1zM100 75zM88 75zM88 75zM47 71zM66 74zM54 74zM88 73zM76 74zM49 72zM46 74zM62 75zM60 75h1-1zM44 74h-1 1zM61 75h1-1zM46 71h0zM62 75zM62 75h-1 1zM55 71s1 0 0 0zM65 75h-1 1zM73 75zM56 71v1-1zM56 71zM67 75zM108 75h0zM86 75zM79 75zM91 75zM99 75zM71 75c1 0 0 0 0 0zM47 71zM47 71zM47 71zM67 75zM66 75h1-1zM67 75zM67 75zM88 75zM88 75c0-1 0-1 0 0zM84 75h0zM53 73zM52 73z"/></g><g><path fill="#78561B" d="M112 73v-1 1z"/><path fill="none" d="M121 75v-1h-1v1h-1v-1h-1 4l-1 1s0-1 0 0zm0-1h-1 1zm0 0h0zM117 75zM118 75v-1 1zM120 75v0zM118 74h-1-1v0h1v0c0 1 0 0 0 0h1zM119 75v0c1 0 0 0 0 0zM122 75h-1l1 1c0-1 0 0 0 0l1-1h-1zM126 75h1v-1h-1-1 0v1h1zM126 75h-1 1c0 1 0 1 0 0l1 1h-1 1l-1-1zM128 75h-1v1c1 0 0 0 0 0l1-1zM117 75v0h1-1zM124 75l-1-1h1v1l1 1v-1h-1 1v-1l-1 1zM123 74zM124 74h0zM115 74v0zM159 75h2-2zM116 75h-1 1zM121 73v-1 1zM112 73zM112 74h0v-1 1zM147 75v0h-1 1-1 1v1-1zM114 74zM114 75h1-1zM117 73zM114 74h-1l1 1v-1zM114 74l-1-1v1h1zM118 74l-1-1 1 1zM130 74h-1 1-1s-1 0 0 0c-1 0 0 0 0 0h-1v1h2v-1zM123 75zM154 74zM152 73s1 0 0 0h0zM154 74v0zM157 75c-1 0 0 0 0 0zM157 74zM149 73zM130 74v0zM147 74l1 1v-1h-1zM148 73h-1c1 0 0 0 0 0s0-1 0 0h1zM148 73zM149 75h-1 1zM164 74h-1 1zM163 75h0zM166 74v1h1l-1-1zM163 75zM168 75v0zM157 74v0zM177 76zM157 73v1l1-1h-1zM146 74h1-1zM158 73v1h1l-1-1zM162 74h0zM160 74h-1s0 1 0 0h1zM148 75l1 1-1-1zM134 74h-1c0 1 0 0 0 0l1 1c0-1 0 0 0 0v-1c0 1 0 1 0 0v0zM138 75h-1 1c0-1 0 0 0 0zM136 73zM135 75v-1s-1 0 0 0v1zM136 75h1l-1-1v1zM142 74v0zM138 74h1-1zM142 73h0zM140 74l1 1s-1-1 0 0v-1 0h-1zM144 75zM143 74h-1 1zM144 75zM131 74c0 1 0 0 0 0h1-1zM131 72l-1 1v-1 1h1v-1zM145 75h-1 1z"/><path fill="#78561B" d="M180 76v1l-1-1h-1-3l-1-1v1h-2v-1 1h-1-2s0-1 0 0h-1c1 0 0 0 0 0h-1v-1 1h-1-2-1c0-1 0 0 0 0h-1-1-1-1v-1h2-2v1h-1c0-1 0 0 0 0h-1-1v-1 1h-1-2-1-1-1 1v-1l-1 1v-1 1h-1-1s-1 0 0 0h-1v-1 0h-1 1-1 1v1h-1l-1-1c0 1 0 0 0 0v1h-2-2v0h-1l-1-1v1h-2-1v-1c0 1 0 0 0 0l-1 1h-1l-1-1v1-1 1h-1s0-1 0 0h-1v-1s0 1 0 0v1l-2-1h-1v1s-1 0 0 0h-1-2c-1 0 0 0 0 0h-3s-1 0 0 0h-4-1-1l-1-1v1l-1-1h-2v-1h0v-1 1-2h2l1 1h1-1v-1h1s0 1 0 0c1 0 0 0 0 0h4c0 1 0 0 0 0h2v1h1v-1h1v1h1v-1s1 0 0 0h1v0l1 1v-1h1-1 0v1h1v-1h1-1 1v1h1v-1h2l1 1v-1 1s0-1 0 0h1s0-1 0 0v-1 0h2-1v1l1-1h0l1 1h-1l1-1v0h7c0 1 0 0 0 0h1l1 1v-1 0h3v0l1 1v-1 0h1l-1 1h1v-1l1 1v-1h1l1 1c0-1 0 0 0 0l1-1h1l1 1h21c0 1 0 0 0 0h2v3zm-59-3v-1 1zm-4 0l1 1-1-1zm-2 1v0zm-1 0l-1-1v1h1zm0 0h-1l1 1v-1zm0 0zm2 1h-2 2zm2 0h-1v0h1zm0-1h-1-1v0h1v0c0 1 0 0 0 0h1zm0 1v-1 1zm1 0v0c1 0 0 0 0 0zm1 0v0zm1 0v-1h1-1-1-1-1 1v1h1v-1h1v1zm2 0h-1-1l1 1c0-1 0 0 0 0l1-1zm0-1zm2 0h-1 1l-1 1-1-1h1v1l1 1v-1h-1 1v-1h-1 1zm0 1h2v-1h-2 0v1zm2 1l-1-1h-1 1c0 1 0 1 0 0l1 1h-1 1zm1-1h-1v1c1 0 0 0 0 0l1-1zm2-1h-1 1-1s-1 0 0 0c-1 0 0 0 0 0h-1v1h2v-1zm0 0v0zm1-1v-1l-1 1v-1 1h1zm1 1h-1c0 1 0 0 0 0h1zm2 0h-1c0 1 0 0 0 0l1 1c0-1 0 0 0 0v-1c0 1 0 1 0 0v0zm1 1v-1s-1 1 0 0h-1l1 1zm2-2h-1 1zm0 2l-1-1v1h1zm1 0c0-1 0 0 0 0h-1 1zm1-1h-1 1c0 1 0 0 0 0zm2 1v-1h-1l1 1s-1-1 0 0v-1 1zm1-2h0zm0 1v0zm1 0h-1 1zm1 1zm1 0h-1 1zm2-1h-1 1zm0-1h0c1 0 0 0 0 0v-1 1zm1 1h-1l1 1v-1zm0-1zm1 2h-1 1zm0 1l-1-1 1 1zm0-3zm4 0h-1s1 0 0 0h1zm1 1zm0 1v-1 1zm3 0c-1 0 0 0 0 0zm0-1v0zm1-1h-1v1l1-1zm0 0v1h1l-1-1zm2 1h-1s0 1 0 0h1zm3 0h-1 1zm0 0h1-1zm0 1zm1 0h-1 1zm3 0l-1-1v1h1zm1 0v0zm9 1zM168 76zM156 76zM156 76zM116 72zM135 75zM123 75zM157 74zM144 75zM117 73zM115 75zM131 76zM129 76h-1 1zM112 75zM130 76h-1s1 0 0 0h1zM115 72h1-1zM131 76zM131 76h-1 1zM124 72h-1 1zM133 76zM142 76h-1 1z"/><path fill="#78561B" d="M125 72h-1v1l1-1s-1 0 0 0zM125 72l-1 1 1-1zM135 76zM177 76zM155 76h-1 1zM148 76zM159 76h0zM168 76h-1 1zM140 76h-1 1zM115 72h0zM116 72zM135 76zM135 76zM135 76zM135 76zM156 76zM156 76c0-1 0-1 0 0zM153 76h1-1zM122 74h-1 1zM120 74z"/></g><g><path fill="#78561B" d="M180 74v-1 1z"/><path fill="none" d="M190 76l-1-1h-1v0s-1 0 0 0h-1 3v1s0-1 0 0zm-1-1zm1 0v0zM185 76zM186 76v-1 1h1-1zM188 76v1l1-1h-1s0 1 0 0z"/><path fill="none" d="M186 75c1 0 1 0 0 0h-2 0v1h1v-1c0 1 0 0 0 0h1-1v1c0-1 0 0 0 0l1-1c0 1 0 0 0 0zM188 76h-1v0h1zM191 76h-1s-1 0 0 0v1h1v-1zM195 76s0-1 0 0l1-1h-1-1v1h1zM195 76c-1 0 0 0 0 0h-1 1v0zM196 76h-1l1 1v-1zM186 76v0zM193 76l-1-1v1h1v-1 1zM191 75h1s-1 0 0 0h-1zM193 75zM183 75v0zM228 76h1-1 0zM184 76h-1 1zM190 74v0zM180 74zM180 75h2-1 1-1l-1-1v1zM216 77v-1h-1v1-1l1 1zM182 75h0zM183 76zM186 74zM182 75v0zM182 75c0-1 0 0 0 0zM186 75v-1 1zM198 75h-1v1h1v-1zM191 76h1-1zM222 75h0zM221 74zM223 75h-1l1 1v-1zM225 76zM225 75zM218 74c-1 0-1 0 0 0-1 0 0 0 0 0s-1 0 0 0zM198 75l1 1v-1h-1zM216 75v0zM216 74h-1 1zM217 74h-1s1 0 0 0h1zM217 76c0 1 0 0 0 0zM232 75zM232 76zM235 75v0zM232 76zM236 76s1 0 0 0l1 1v-1h-1zM226 75h-1v1h1v-1zM245 77h1-1zM226 74v0zM215 75c-1 0 0 0 0 0 0 1 0 1 0 0 0 1 0 0 0 0zM227 74v0zM231 75zM228 75v0zM217 76v0zM203 75h-1c0 1 0 0 0 0h-1l1 1h1v-1 1h-1v-1h1zM206 76h1-1zM204 74h0zM203 76v-1 1zM205 76h1l-1-1v1zM211 75c-1 0 0 0 0 0h-1v1l1-1h-1 1zM207 75v0zM211 74zM209 75v1s0-1 0 0v-1l1 1v-1h-1zM212 76c1 0 0 0 0 0h0zM211 75h1-1zM212 76h1-1zM200 75h-1 1zM199 73v0zM213 76z"/><path fill="#78561B" d="M228 76zM249 77h-1v1l-1-1h-3-1v0h-1-1s1 0 0 0h-1v-1 1h-1-3-1v-1 1s0-1 0 0h-1-1-1-3c-1 0 0 0 0 0h-1v-1h1-1 0l-1 1h-2v-1s-1 0 0 0l-1 1h-1 1-1-1-1-1 1-2 0v-1 1l-1-1v1h-1-1-1v-1h1v0h-1v1c0-1 0 0 0 0h-1l-1-1c0 1 0 0 0 0v1c1 0 0 0 0 0h-1s1 0 0 0h-1c-1 0 0 0 0 0h-1-1 1l-1-1v1h-1-1-1-2 1-2-1v-1 1h-1v-1 1c0-1 0-1 0 0h-2 1l-1-1v1l-1-1-1 1v0h-2-1-1-2-2-1-5l-1-1h-2v-1h2-1 1-1-1v-1-1h3v1h1v-1h1-1 2-1 3c0 1 0 0 0 0 0 1 0 0 0 0h2s0 1 0 0h1v1h1c0-1 0-1 0 0v-1 1h1v-1h1v0h1v0h1v1h1v-1l1 1c0-1 0 0 0 0v-1h3c0 1 0 0 0 0v0h0l1 1h1-1v-1h1v0h1v0h1v1l1-1h8v0l1 1v-1s0 1 0 0h1v1l1-1v1c0-1 0 0 0 0v-1l1 1v-1 1h1v-1 1s0-1 0 0h1c0-1 0 0 0 0h1v-1l1 1h1s0-1 0 0h18s-1 0 0 0h6c0 1 0 0 0 0h2v3zm-59-3v0zm-4 0v0zm-3 1v0zm-1 0c0-1 0 0 0 0zm0 0v0zm1 0h-1 1zm1 1h-1 1zm2 0v0zm0-1c1 0 1 0 0 0h-2 0v1h1v-1c0 1 0 0 0 0h1-1v1c0-1 0 0 0 0h1v-1zm1 1h-1v-1 1h1zm1 0h-1v0h1zm0 0s0 1 0 0v1l1-1h-1zm2 0c0-1 0 0 0 0v-1h-1-2 1c-1 0 0 0 0 0v0h1l1 1zm2 0h-1-1s-1 0 0 0v1h1v-1h1zm0-1h-1 1s-1 0 0 0zm1 0v1l-1-1 1 1h-1 1v-1zm1 1h1l1-1h-1-1v1zm1 1v-1c-1 0 0 0 0 0h-1 1v1zm1-1h-1l1 1v-1zm2-1h-1v1h1v-1zm1 0h-1l1 1v-1zm0-1v-1 1zm1 1h-1 1zm3 0h-1-1l1 1h1v-1 1h-1v-1h1zm0 1v-1 1zm2-2h-1 1zm1 2l-1-1v1h1zm1 0h-1 1zm0-1v0zm3 1v-1h-1v1s0-1 0 0v-1l1 1zm1-2zm0 1c-1 0 0 0 0 0h-1v1l1-1h-1 1zm1 0h-1 1zm1 1h-1 1zm0 0h-1c1 0 0 0 0 0h1zm2-1c0 1 0 0 0 0 0 1 0 1 0 0zm1-1h-1 1zm0 1v0zm1-1h-1s1 0 0 0h1zm0 2c0 1 0 0 0 0zm0 1v-1 1zm1-3c-1 0-1 0 0 0-1 0 0 0 0 0s-1 0 0 0zm3 0zm2 1h-1 1zm0 1v-1h-1l1 1zm2 0zm1-1h-1v1l1-1c0 1 0 0 0 0zm0-1v0zm1 0v0zm1 1v0zm3 0zm1 0zm0 1s-1 0 0 0zm0 0zm3 0v-1 1zm2 0h-1s1 0 0 0l1 1v-1zm9 1h-1 1zM237 77zM225 77zM225 77zM184 73zM203 76zM191 76zM225 75zM213 76zM186 74zM183 76zM199 77zM197 77h1-1zM181 76h-1 1z"/><path fill="#78561B" d="M198 77c0 1 0 0 0 0h1-1zM183 73h0zM199 77zM199 77h-1 1zM192 73s1 0 0 0zM202 77h-1 1zM210 77zM193 73v0zM193 74zM204 77zM245 77h0zM223 77zM216 77zM228 77zM236 77zM208 77c1 0 0 0 0 0zM184 73zM184 73zM184 73zM204 77zM203 77zM204 77zM204 77zM225 77zM225 77c0-1 0-1 0 0zM221 77h0zM190 76v-1 1zM189 75z"/></g><g><path fill="none" d="M250 77h-1 1zM249 76h0zM251 76c0 1 0 0 0 0-1 0 0 0 0 0zM249 77h0z"/><path fill="none" d="M251 76l-1 1v-1 1h1v-1z"/><path fill="#78561B" d="M256 76h-1v1h-1 1l-1-1v1h-2-2c0 1 0 0 0 0h-1 1-1v-3h1v0h2l2 1v-1h1v1h0v1h1zm-6 0h-1 1zm0 1h-1 1zm1 0v-1l-1 1v-1 1h1zm0-1c-1 0 0 0 0 0 0 1 0 0 0 0zM256 75z"/></g></g></svg>