<?xml-stylesheet type="text/css" href="../style.css"?>
<svg xmlns="http://www.w3.org/2000/svg" xmlns:xlink="http://www.w3.org/1999/xlink" width="55.395" height="62.953" viewBox="0 0 55.395 62.953" id="info-star2">
  <defs>
    <clipPath id="clip-path">
      <rect id="사각형_64" data-name="사각형 64" width="55.395" height="62.953" fill="none"/>
    </clipPath>
  </defs>
  <g id="그룹_289" data-name="그룹 289" transform="translate(55.395 62.953) rotate(180)">
    <g id="그룹_285" data-name="그룹 285" transform="translate(0 0)">
      <g id="그룹_284" data-name="그룹 284" clip-path="url(#clip-path)">
        <path id="패스_9994" data-name="패스 9994" d="M44.2,27.095A19.729,19.729,0,1,1,24.467,7.366,19.729,19.729,0,0,1,44.2,27.095" transform="translate(3.76 5.846)" fill="#ffe08c"/>
      </g>
    </g>
    <g id="그룹_287" data-name="그룹 287" transform="translate(0 0)">
      <g id="그룹_286" data-name="그룹 286" clip-path="url(#clip-path)">
        <path id="패스_9995" data-name="패스 9995" d="M27.984,6.976l.574,10.745.115,2.658c.038,1.012.135,1.9.208,2.793l.239,2.683a8.5,8.5,0,0,0,.319,1.756,5.2,5.2,0,0,0,1.11,2,5.353,5.353,0,0,0,2.437,1.417c.714.2,1.189.3,1.77.45l3.352.829,5.723,1.424,1.223.321c.074.039.251.013.215.145-.072.083-.208.059-.307.093l-.63.131-.508.117-1.759.488q-2.868.826-5.693,1.792l-2.834,1a5.074,5.074,0,0,0-2.158,1.41,4.8,4.8,0,0,0-1.022,2.446l-.056.4-.038.169-.163.714-.326,1.429-.653,2.859L28.5,49.858c-.079.181-.142-.109-.143-.194l-.068-.371-.136-.707q-.6-3.115-1.221-6.3-.309-1.633-.621-3.282l-.161-.863c-.109-.52-.187-1.06-.323-1.569a2.832,2.832,0,0,0-.744-1.239A8.3,8.3,0,0,0,23.8,34.63q-2.058-.525-4.129-1.056l-3.5-.859-3.334-.809c-.366-.1-.192-.072-.242-.1.036-.05.1,0-.016-.05a.029.029,0,0,1-.007-.038l.023-.03.023-.018.013-.011.289-.056c1.84-.355,3.657-.741,5.454-1.139l5.343-1.218a5.79,5.79,0,0,0,2.149-.707,3.321,3.321,0,0,0,1.3-1.819,7,7,0,0,0,.237-1.132l.091-.746.151-1.338c.387-3.566.818-7.061,1.125-10.571A82.508,82.508,0,0,0,28.91,2.627c-.018-.414-.366-.251-.421.16-.466,3.515-.974,7-1.673,10.449s-1.435,6.982-2.043,10.481l-.221,1.254a2.117,2.117,0,0,1-.228.771.88.88,0,0,1-.683.38l-1.085.2-5.237.979-5.223.947c-2.341.4-4.739.753-7.208,1.062l-1.006.226-.762.235-1.379.421c-.448.143-.83.222-1.248.335a2.187,2.187,0,0,0-.3.091A.5.5,0,0,0,0,31a.537.537,0,0,0,.124.414,1.7,1.7,0,0,0,.287.152c.795.373,1.528.773,2.554,1.234.262.115.484.231.777.343l1.071.325c.689.221,1.5.418,2.246.63,1.521.4,3.176.82,4.651,1.166l3.605.848,3.51.838,3.219.812c.217.084.6.054.6.38l.142.771.479,2.538.956,5.077,1.164,6.157.716,3.759a8.772,8.772,0,0,0,.9,2.593l.739,1.526c.057.113.1.228.169.337a.628.628,0,0,0,.565.147.381.381,0,0,0,.341-.262l.172-.308.83-1.379a6.34,6.34,0,0,0,.977-2.488l2.9-12.115.292-1.2.074-.3a3.048,3.048,0,0,0,.088-.461,3.025,3.025,0,0,1,.068-.384.815.815,0,0,1,.61-.628c1.426-.5,3.047-1.038,4.575-1.508q2.327-.716,4.681-1.336l3.686-.933q2.12-.5,4.435-.961c.49-.221,1.092-.445,1.492-.664.258-.206.588-.447.782-.626l.511-.5.2-.206a.486.486,0,0,0,.183-.355,1.392,1.392,0,0,0-.045-.674c-.052-.091-.108-.156-.161-.237L54.787,33A3.974,3.974,0,0,0,53,31.607L40.882,28.45l-4.193-1.1L34.6,26.8a3.662,3.662,0,0,1-.644-.217.187.187,0,0,1-.083-.072.471.471,0,0,1-.05-.124,2.778,2.778,0,0,1-.111-.526l-.152-1.957c-.091-1.417-.233-2.823-.235-4.095-.156-5.408-.083-10.512-1.575-15.229-1.187-3.7-4-1.935-3.77,2.391" transform="translate(0 1.893)" fill="#876935"/>
      </g>
    </g>
  </g>
</svg>
